  0
SECTION
  2
HEADER
  9
$ACADVER
  1
AC1018
  9
$ACADMAINTVER
 70
     0
  9
$DWGCODEPAGE
  3
ANSI_932
  9
$INSBASE
 10
0.0
 20
0.0
 30
0.0
  9
$EXTMIN
 10
1.000000000000000E+20
 20
1.000000000000000E+20
 30
1.000000000000000E+20
  9
$EXTMAX
 10
-1.000000000000000E+20
 20
-1.000000000000000E+20
 30
-1.000000000000000E+20
  9
$LIMMIN
 10
0.0
 20
0.0
  9
$LIMMAX
 10
12.0
 20
9.0
  9
$ORTHOMODE
 70
     0
  9
$REGENMODE
 70
     1
  9
$FILLMODE
 70
     1
  9
$QTEXTMODE
 70
     0
  9
$MIRRTEXT
 70
     1
  9
$LTSCALE
 40
1.0
  9
$ATTMODE
 70
     1
  9
$TEXTSIZE
 40
0.2
  9
$TRACEWID
 40
0.05
  9
$TEXTSTYLE
  7
Standard
  9
$CLAYER
  8
0
  9
$CELTYPE
  6
ByLayer
  9
$CECOLOR
 62
   256
  9
$CELTSCALE
 40
1.0
  9
$DISPSILH
 70
     0
  9
$DIMSCALE
 40
1.0
  9
$DIMASZ
 40
0.18
  9
$DIMEXO
 40
0.0625
  9
$DIMDLI
 40
0.38
  9
$DIMRND
 40
0.0
  9
$DIMDLE
 40
0.0
  9
$DIMEXE
 40
0.18
  9
$DIMTP
 40
0.0
  9
$DIMTM
 40
0.0
  9
$DIMTXT
 40
0.18
  9
$DIMCEN
 40
0.09
  9
$DIMTSZ
 40
0.0
  9
$DIMTOL
 70
     0
  9
$DIMLIM
 70
     0
  9
$DIMTIH
 70
     1
  9
$DIMTOH
 70
     1
  9
$DIMSE1
 70
     0
  9
$DIMSE2
 70
     0
  9
$DIMTAD
 70
     0
  9
$DIMZIN
 70
     0
  9
$DIMBLK
  1

  9
$DIMASO
 70
     1
  9
$DIMSHO
 70
     1
  9
$DIMPOST
  1

  9
$DIMAPOST
  1

  9
$DIMALT
 70
     0
  9
$DIMALTD
 70
     2
  9
$DIMALTF
 40
25.4
  9
$DIMLFAC
 40
1.0
  9
$DIMTOFL
 70
     0
  9
$DIMTVP
 40
0.0
  9
$DIMTIX
 70
     0
  9
$DIMSOXD
 70
     0
  9
$DIMSAH
 70
     0
  9
$DIMBLK1
  1

  9
$DIMBLK2
  1

  9
$DIMSTYLE
  2
Standard
  9
$DIMCLRD
 70
     0
  9
$DIMCLRE
 70
     0
  9
$DIMCLRT
 70
     0
  9
$DIMTFAC
 40
1.0
  9
$DIMGAP
 40
0.09
  9
$DIMJUST
 70
     0
  9
$DIMSD1
 70
     0
  9
$DIMSD2
 70
     0
  9
$DIMTOLJ
 70
     1
  9
$DIMTZIN
 70
     0
  9
$DIMALTZ
 70
     0
  9
$DIMALTTZ
 70
     0
  9
$DIMUPT
 70
     0
  9
$DIMDEC
 70
     4
  9
$DIMTDEC
 70
     4
  9
$DIMALTU
 70
     2
  9
$DIMALTTD
 70
     2
  9
$DIMTXSTY
  7
Standard
  9
$DIMAUNIT
 70
     0
  9
$DIMADEC
 70
     0
  9
$DIMALTRND
 40
0.0
  9
$DIMAZIN
 70
     0
  9
$DIMDSEP
 70
    46
  9
$DIMATFIT
 70
     3
  9
$DIMFRAC
 70
     0
  9
$DIMLDRBLK
  1

  9
$DIMLUNIT
 70
     2
  9
$DIMLWD
 70
    -2
  9
$DIMLWE
 70
    -2
  9
$DIMTMOVE
 70
     0
  9
$LUNITS
 70
     2
  9
$LUPREC
 70
     4
  9
$SKETCHINC
 40
0.1
  9
$FILLETRAD
 40
0.5
  9
$AUNITS
 70
     0
  9
$AUPREC
 70
     0
  9
$MENU
  1
.
  9
$ELEVATION
 40
0.0
  9
$PELEVATION
 40
0.0
  9
$THICKNESS
 40
0.0
  9
$LIMCHECK
 70
     0
  9
$CHAMFERA
 40
0.5
  9
$CHAMFERB
 40
0.5
  9
$CHAMFERC
 40
1.0
  9
$CHAMFERD
 40
0.0
  9
$SKPOLY
 70
     0
  9
$TDCREATE
 40
2456682.777685185
  9
$TDUCREATE
 40
2456683.069351852
  9
$TDUPDATE
 40
2456682.777685197
  9
$TDUUPDATE
 40
2456683.069351864
  9
$TDINDWG
 40
0.0000000116
  9
$TDUSRTIMER
 40
0.0000000116
  9
$USRTIMER
 70
     1
  9
$ANGBASE
 50
0.0
  9
$ANGDIR
 70
     0
  9
$PDMODE
 70
     0
  9
$PDSIZE
 40
0.0
  9
$PLINEWID
 40
0.0
  9
$SPLFRAME
 70
     0
  9
$SPLINETYPE
 70
     6
  9
$SPLINESEGS
 70
     8
  9
$HANDSEED
  5
9B
  9
$SURFTAB1
 70
     6
  9
$SURFTAB2
 70
     6
  9
$SURFTYPE
 70
     6
  9
$SURFU
 70
     6
  9
$SURFV
 70
     6
  9
$UCSBASE
  2

  9
$UCSNAME
  2

  9
$UCSORG
 10
0.0
 20
0.0
 30
0.0
  9
$UCSXDIR
 10
1.0
 20
0.0
 30
0.0
  9
$UCSYDIR
 10
0.0
 20
1.0
 30
0.0
  9
$UCSORTHOREF
  2

  9
$UCSORTHOVIEW
 70
     0
  9
$UCSORGTOP
 10
0.0
 20
0.0
 30
0.0
  9
$UCSORGBOTTOM
 10
0.0
 20
0.0
 30
0.0
  9
$UCSORGLEFT
 10
0.0
 20
0.0
 30
0.0
  9
$UCSORGRIGHT
 10
0.0
 20
0.0
 30
0.0
  9
$UCSORGFRONT
 10
0.0
 20
0.0
 30
0.0
  9
$UCSORGBACK
 10
0.0
 20
0.0
 30
0.0
  9
$PUCSBASE
  2

  9
$PUCSNAME
  2

  9
$PUCSORG
 10
0.0
 20
0.0
 30
0.0
  9
$PUCSXDIR
 10
1.0
 20
0.0
 30
0.0
  9
$PUCSYDIR
 10
0.0
 20
1.0
 30
0.0
  9
$PUCSORTHOREF
  2

  9
$PUCSORTHOVIEW
 70
     0
  9
$PUCSORGTOP
 10
0.0
 20
0.0
 30
0.0
  9
$PUCSORGBOTTOM
 10
0.0
 20
0.0
 30
0.0
  9
$PUCSORGLEFT
 10
0.0
 20
0.0
 30
0.0
  9
$PUCSORGRIGHT
 10
0.0
 20
0.0
 30
0.0
  9
$PUCSORGFRONT
 10
0.0
 20
0.0
 30
0.0
  9
$PUCSORGBACK
 10
0.0
 20
0.0
 30
0.0
  9
$USERI1
 70
     0
  9
$USERI2
 70
     0
  9
$USERI3
 70
     0
  9
$USERI4
 70
     0
  9
$USERI5
 70
     0
  9
$USERR1
 40
0.0
  9
$USERR2
 40
0.0
  9
$USERR3
 40
0.0
  9
$USERR4
 40
0.0
  9
$USERR5
 40
0.0
  9
$WORLDVIEW
 70
     1
  9
$SHADEDGE
 70
     3
  9
$SHADEDIF
 70
    70
  9
$TILEMODE
 70
     1
  9
$MAXACTVP
 70
    64
  9
$PINSBASE
 10
0.0
 20
0.0
 30
0.0
  9
$PLIMCHECK
 70
     0
  9
$PEXTMIN
 10
1.000000000000000E+20
 20
1.000000000000000E+20
 30
1.000000000000000E+20
  9
$PEXTMAX
 10
-1.000000000000000E+20
 20
-1.000000000000000E+20
 30
-1.000000000000000E+20
  9
$PLIMMIN
 10
0.0
 20
0.0
  9
$PLIMMAX
 10
12.0
 20
9.0
  9
$UNITMODE
 70
     0
  9
$VISRETAIN
 70
     1
  9
$PLINEGEN
 70
     0
  9
$PSLTSCALE
 70
     1
  9
$TREEDEPTH
 70
  3020
  9
$CMLSTYLE
  2
Standard
  9
$CMLJUST
 70
     0
  9
$CMLSCALE
 40
1.0
  9
$PROXYGRAPHICS
 70
     1
  9
$MEASUREMENT
 70
     0
  9
$CELWEIGHT
370
    -1
  9
$ENDCAPS
280
     0
  9
$JOINSTYLE
280
     0
  9
$LWDISPLAY
290
     1
  9
$INSUNITS
 70
     1
  9
$HYPERLINKBASE
  1

  9
$STYLESHEET
  1

  9
$XEDIT
290
     1
  9
$CEPSNTYPE
380
     0
  9
$PSTYLEMODE
290
     1
  9
$FINGERPRINTGUID
  2
{A3FD5FC5-B3E7-8549-50F6-788C1A09B9DB}
  9
$VERSIONGUID
  2
{FAEB1C32-E019-11D5-929B-00C0DF256EC4}
  9
$EXTNAMES
290
     1
  9
$PSVPSCALE
 40
0.0
  9
$OLESTARTUP
290
     0
  9
$SORTENTS
280
   127
  9
$INDEXCTL
280
     0
  9
$HIDETEXT
280
     1
  9
$XCLIPFRAME
290
     0
  9
$HALOGAP
280
     0
  9
$OBSCOLOR
 70
   257
  9
$OBSLTYPE
280
     0
  9
$INTERSECTIONDISPLAY
280
     0
  9
$INTERSECTIONCOLOR
 70
   257
  9
$DIMASSOC
280
     2
  9
$PROJECTNAME
  1

  0
ENDSEC
  0
SECTION
  2
CLASSES
  0
CLASS
  1
ACDBDICTIONARYWDFLT
  2
AcDbDictionaryWithDefault
  3
ObjectDBX Classes
 90
        0
 91
        3
280
     0
281
     0
  0
CLASS
  1
VISUALSTYLE
  2
AcDbVisualStyle
  3
ObjectDBX Classes
 90
     4095
 91
        3
280
     0
281
     0
  0
ENDSEC
  0
SECTION
  2
TABLES
  0
TABLE
  2
VPORT
  5
8
330
0
100
AcDbSymbolTable
 70
     1
  0
VPORT
  5
29
330
8
100
AcDbSymbolTableRecord
100
AcDbViewportTableRecord
  2
*Active
 70
     0
 10
0.0
 20
0.0
 11
1.0
 21
1.0
 12
0.0
 22
0.0
 13
0.0
 23
0.0
 14
0.5
 24
0.5
 15
0.5
 25
0.5
 16
0.0
 26
0.0
 36
1.0
 17
110.0
 27
-33.0
 37
0.0
 40
66.0
 41
3.333333333333333
 42
50.0
 43
0.0
 44
0.0
 50
0.0
 51
0.0
 71
     0
 72
   100
 73
     1
 74
     3
 75
     0
 76
     0
 77
     0
 78
     0
281
     0
 65
     1
110
0.0
120
0.0
130
0.0
111
1.0
121
0.0
131
0.0
112
0.0
122
1.0
132
0.0
 79
     0
146
0.0
  0
ENDTAB
  0
TABLE
  2
LTYPE
  5
5
330
0
100
AcDbSymbolTable
 70
     1
  0
LTYPE
  5
14
330
5
100
AcDbSymbolTableRecord
100
AcDbLinetypeTableRecord
  2
ByBlock
 70
     0
  3

 72
    65
 73
     0
 40
0.0
  0
LTYPE
  5
15
330
5
100
AcDbSymbolTableRecord
100
AcDbLinetypeTableRecord
  2
ByLayer
 70
     0
  3

 72
    65
 73
     0
 40
0.0
  0
LTYPE
  5
16
330
5
100
AcDbSymbolTableRecord
100
AcDbLinetypeTableRecord
  2
Continuous
 70
     0
  3
Solid line
 72
    65
 73
     0
 40
0.0
  0
ENDTAB
  0
TABLE
  2
LAYER
  5
2
330
0
100
AcDbSymbolTable
 70
     2
  0
LAYER
  5
10
330
2
100
AcDbSymbolTableRecord
100
AcDbLayerTableRecord
  2
0
 70
     0
 62
     7
  6
Continuous
370
    -3
390
F
  0
LAYER
  5
3B
330
2
100
AcDbSymbolTableRecord
100
AcDbLayerTableRecord
  2
Layer 1
 70
     0
 62
     7
  6
Continuous
370
    -3
390
F
  0
ENDTAB
  0
TABLE
  2
STYLE
  5
3
330
0
100
AcDbSymbolTable
 70
     1
  0
STYLE
  5
11
330
3
100
AcDbSymbolTableRecord
100
AcDbTextStyleTableRecord
  2
Standard
 70
     0
 40
0.0
 41
1.0
 50
0.0
 71
     0
 42
0.2
  3
txt
  4

  0
ENDTAB
  0
TABLE
  2
VIEW
  5
6
330
0
100
AcDbSymbolTable
 70
     0
  0
ENDTAB
  0
TABLE
  2
UCS
  5
7
330
0
100
AcDbSymbolTable
 70
     0
  0
ENDTAB
  0
TABLE
  2
APPID
  5
9
330
0
100
AcDbSymbolTable
 70
     1
  0
APPID
  5
12
330
9
100
AcDbSymbolTableRecord
100
AcDbRegAppTableRecord
  2
ACAD
 70
     0
  0
ENDTAB
  0
TABLE
  2
DIMSTYLE
  5
A
330
0
100
AcDbSymbolTable
 70
     1
100
AcDbDimStyleTable
  0
DIMSTYLE
105
27
330
A
100
AcDbSymbolTableRecord
100
AcDbDimStyleTableRecord
  2
Standard
 70
     0
340
11
  0
ENDTAB
  0
TABLE
  2
BLOCK_RECORD
  5
1
330
0
100
AcDbSymbolTable
 70
     3
  0
BLOCK_RECORD
  5
1F
330
1
100
AcDbSymbolTableRecord
100
AcDbBlockTableRecord
  2
*Model_Space
340
22
  0
BLOCK_RECORD
  5
1B
330
1
100
AcDbSymbolTableRecord
100
AcDbBlockTableRecord
  2
*Paper_Space
340
1E
  0
BLOCK_RECORD
  5
23
330
1
100
AcDbSymbolTableRecord
100
AcDbBlockTableRecord
  2
*Paper_Space0
340
26
  0
BLOCK_RECORD
  5
3C
330
1
100
AcDbSymbolTableRecord
100
AcDbBlockTableRecord
  2
block 2
340
0
102
{BLKREFS
331
3D
102
}
  0
BLOCK_RECORD
  5
67
330
1
100
AcDbSymbolTableRecord
100
AcDbBlockTableRecord
  2
block 3
340
0
102
{BLKREFS
331
68
102
}
  0
ENDTAB
  0
ENDSEC
  0
SECTION
  2
BLOCKS
  0
BLOCK
  5
20
330
1F
100
AcDbEntity
  8
0
100
AcDbBlockBegin
  2
*Model_Space
 70
     0
 71
     0
 10
0.0
 20
0.0
 30
0.0
  3
*Model_Space
  1

  0
ENDBLK
  5
21
330
1F
100
AcDbEntity
  8
0
100
AcDbBlockEnd
  0
BLOCK
  5
1C
330
1B
100
AcDbEntity
 67
     1
  8
0
100
AcDbBlockBegin
  2
*Paper_Space
 70
     0
 71
     0
 10
0.0
 20
0.0
 30
0.0
  3
*Paper_Space
  1

  0
ENDBLK
  5
1D
330
1B
100
AcDbEntity
 67
     1
  8
0
100
AcDbBlockEnd
  0
BLOCK
  5
24
330
23
100
AcDbEntity
  8
0
100
AcDbBlockBegin
  2
*Paper_Space0
 70
     0
 71
     0
 10
0.0
 20
0.0
 30
0.0
  3
*Paper_Space0
  1

  0
ENDBLK
  5
25
330
23
100
AcDbEntity
  8
0
100
AcDbBlockEnd
  0
BLOCK
  5
3E
330
3C
100
AcDbEntity
  8
0
100
AcDbBlockBegin
  2
block 2
 70
     0
 71
     0
 10
0.0
 20
0.0
 30
0.0
  3
block 2
  1

  0
SPLINE
  5
40
330
3C
100
AcDbEntity
  8
Layer 1
370
     0
100
AcDbSpline
210
0.0
220
0.0
230
1.0
 70
    11
 71
     3
 72
    44
 73
    40
 74
     0
 42
0.0000000001
 43
0.0000000001
 40
0.0
 40
0.0
 40
0.0
 40
0.0
 40
1.0
 40
1.0
 40
1.0
 40
2.0
 40
2.0
 40
2.0
 40
3.0
 40
3.0
 40
3.0
 40
4.0
 40
4.0
 40
4.0
 40
5.0
 40
5.0
 40
5.0
 40
6.0
 40
6.0
 40
6.0
 40
7.0
 40
7.0
 40
7.0
 40
8.0
 40
8.0
 40
8.0
 40
9.0
 40
9.0
 40
9.0
 40
10.0
 40
10.0
 40
10.0
 40
11.0
 40
11.0
 40
11.0
 40
12.0
 40
12.0
 40
12.0
 40
13.0
 40
13.0
 40
13.0
 40
13.0
 10
36.14599609375
 20
-9.203125
 30
0.0
 10
36.14599609375
 20
-10.1201171875
 30
0.0
 10
35.9970703125
 20
-11.015625
 30
0.0
 10
35.69970703125
 20
-11.890625
 30
0.0
 10
35.40185546875
 20
-12.765625
 30
0.0
 10
34.921875
 20
-13.5810546875
 30
0.0
 10
34.25927734375
 20
-14.3369140625
 30
0.0
 10
33.5966796875
 20
-15.09326171875
 30
0.0
 10
32.701171875
 20
-15.7060546875
 30
0.0
 10
31.572265625
 20
-16.17626953125
 30
0.0
 10
30.44384765625
 20
-16.646484375
 30
0.0
 10
29.11572265625
 20
-16.8818359375
 30
0.0
 10
27.58837890625
 20
-16.8818359375
 30
0.0
 10
27.58837890625
 20
-16.8818359375
 30
0.0
 10
22.97265625
 20
-16.8818359375
 30
0.0
 10
22.97265625
 20
-16.8818359375
 30
0.0
 10
22.97265625
 20
-16.8818359375
 30
0.0
 10
22.97265625
 20
-26.1669921875
 30
0.0
 10
22.97265625
 20
-26.1669921875
 30
0.0
 10
22.97265625
 20
-26.1669921875
 30
0.0
 10
15.93115234375
 20
-26.1669921875
 30
0.0
 10
15.93115234375
 20
-26.1669921875
 30
0.0
 10
15.93115234375
 20
-26.1669921875
 30
0.0
 10
15.93115234375
 20
-1.41796875
 30
0.0
 10
15.93115234375
 20
-1.41796875
 30
0.0
 10
15.93115234375
 20
-1.41796875
 30
0.0
 10
27.58837890625
 20
-1.41796875
 30
0.0
 10
27.58837890625
 20
-1.41796875
 30
0.0
 10
29.11572265625
 20
-1.41796875
 30
0.0
 10
30.44384765625
 20
-1.65625
 30
0.0
 10
31.572265625
 20
-2.13232421875
 30
0.0
 10
32.701171875
 20
-2.6083984375
 30
0.0
 10
33.5966796875
 20
-3.2275390625
 30
0.0
 10
34.25927734375
 20
-3.9892578125
 30
0.0
 10
34.921875
 20
-4.75146484375
 30
0.0
 10
35.40185546875
 20
-5.57861328125
 30
0.0
 10
35.69970703125
 20
-6.47119140625
 30
0.0
 10
35.9970703125
 20
-7.3642578125
 30
0.0
 10
36.14599609375
 20
-8.27490234375
 30
0.0
 10
36.14599609375
 20
-9.203125
 30
0.0
  0
SPLINE
  5
41
330
3C
100
AcDbEntity
  8
Layer 1
370
     0
100
AcDbSpline
210
0.0
220
0.0
230
1.0
 70
    11
 71
     3
 72
    29
 73
    25
 74
     0
 42
0.0000000001
 43
0.0000000001
 40
0.0
 40
0.0
 40
0.0
 40
0.0
 40
1.0
 40
1.0
 40
1.0
 40
2.0
 40
2.0
 40
2.0
 40
3.0
 40
3.0
 40
3.0
 40
4.0
 40
4.0
 40
4.0
 40
5.0
 40
5.0
 40
5.0
 40
6.0
 40
6.0
 40
6.0
 40
7.0
 40
7.0
 40
7.0
 40
8.0
 40
8.0
 40
8.0
 40
8.0
 10
28.9697265625
 20
-9.2392578125
 30
0.0
 10
28.9697265625
 20
-8.060546875
 30
0.0
 10
28.64111328125
 20
-7.25439453125
 30
0.0
 10
27.984375
 20
-6.8193359375
 30
0.0
 10
27.3271484375
 20
-6.38525390625
 30
0.0
 10
26.15087890625
 20
-6.16796875
 30
0.0
 10
24.455078125
 20
-6.16796875
 30
0.0
 10
24.455078125
 20
-6.16796875
 30
0.0
 10
22.97265625
 20
-6.16796875
 30
0.0
 10
22.97265625
 20
-6.16796875
 30
0.0
 10
22.97265625
 20
-6.16796875
 30
0.0
 10
22.97265625
 20
-12.1318359375
 30
0.0
 10
22.97265625
 20
-12.1318359375
 30
0.0
 10
22.97265625
 20
-12.1318359375
 30
0.0
 10
24.48876953125
 20
-12.1318359375
 30
0.0
 10
24.48876953125
 20
-12.1318359375
 30
0.0
 10
25.65673828125
 20
-12.1318359375
 30
0.0
 10
26.55517578125
 20
-12.0546875
 30
0.0
 10
27.18408203125
 20
-11.89990234375
 30
0.0
 10
27.81298828125
 20
-11.7451171875
 30
0.0
 10
28.267578125
 20
-11.45947265625
 30
0.0
 10
28.548828125
 20
-11.04248046875
 30
0.0
 10
28.8291015625
 20
-10.6259765625
 30
0.0
 10
28.9697265625
 20
-10.02490234375
 30
0.0
 10
28.9697265625
 20
-9.2392578125
 30
0.0
  0
HATCH
  5
42
330
3C
100
AcDbEntity
  8
Layer 1
 62
     7
420
 16777215
100
AcDbHatch
 10
0.0
 20
0.0
 30
0.0
210
0.0
220
0.0
230
1.0
  2
SOLID
 70
     1
 71
     0
 91
        2
 92
        1
 93
        1
 72
     4
 94
        3
 73
     0
 74
     1
 95
       44
 96
       40
 40
0.0
 40
0.0
 40
0.0
 40
0.0
 40
1.0
 40
1.0
 40
1.0
 40
2.0
 40
2.0
 40
2.0
 40
3.0
 40
3.0
 40
3.0
 40
4.0
 40
4.0
 40
4.0
 40
5.0
 40
5.0
 40
5.0
 40
6.0
 40
6.0
 40
6.0
 40
7.0
 40
7.0
 40
7.0
 40
8.0
 40
8.0
 40
8.0
 40
9.0
 40
9.0
 40
9.0
 40
10.0
 40
10.0
 40
10.0
 40
11.0
 40
11.0
 40
11.0
 40
12.0
 40
12.0
 40
12.0
 40
13.0
 40
13.0
 40
13.0
 40
13.0
 10
36.14599609375
 20
-9.203125
 10
36.14599609375
 20
-10.1201171875
 10
35.9970703125
 20
-11.015625
 10
35.69970703125
 20
-11.890625
 10
35.40185546875
 20
-12.765625
 10
34.921875
 20
-13.5810546875
 10
34.25927734375
 20
-14.3369140625
 10
33.5966796875
 20
-15.09326171875
 10
32.701171875
 20
-15.7060546875
 10
31.572265625
 20
-16.17626953125
 10
30.44384765625
 20
-16.646484375
 10
29.11572265625
 20
-16.8818359375
 10
27.58837890625
 20
-16.8818359375
 10
27.58837890625
 20
-16.8818359375
 10
22.97265625
 20
-16.8818359375
 10
22.97265625
 20
-16.8818359375
 10
22.97265625
 20
-16.8818359375
 10
22.97265625
 20
-26.1669921875
 10
22.97265625
 20
-26.1669921875
 10
22.97265625
 20
-26.1669921875
 10
15.93115234375
 20
-26.1669921875
 10
15.93115234375
 20
-26.1669921875
 10
15.93115234375
 20
-26.1669921875
 10
15.93115234375
 20
-1.41796875
 10
15.93115234375
 20
-1.41796875
 10
15.93115234375
 20
-1.41796875
 10
27.58837890625
 20
-1.41796875
 10
27.58837890625
 20
-1.41796875
 10
29.11572265625
 20
-1.41796875
 10
30.44384765625
 20
-1.65625
 10
31.572265625
 20
-2.13232421875
 10
32.701171875
 20
-2.6083984375
 10
33.5966796875
 20
-3.2275390625
 10
34.25927734375
 20
-3.9892578125
 10
34.921875
 20
-4.75146484375
 10
35.40185546875
 20
-5.57861328125
 10
35.69970703125
 20
-6.47119140625
 10
35.9970703125
 20
-7.3642578125
 10
36.14599609375
 20
-8.27490234375
 10
36.14599609375
 20
-9.203125
 97
        0
 92
        1
 93
        1
 72
     4
 94
        3
 73
     0
 74
     1
 95
       29
 96
       25
 40
0.0
 40
0.0
 40
0.0
 40
0.0
 40
1.0
 40
1.0
 40
1.0
 40
2.0
 40
2.0
 40
2.0
 40
3.0
 40
3.0
 40
3.0
 40
4.0
 40
4.0
 40
4.0
 40
5.0
 40
5.0
 40
5.0
 40
6.0
 40
6.0
 40
6.0
 40
7.0
 40
7.0
 40
7.0
 40
8.0
 40
8.0
 40
8.0
 40
8.0
 10
28.9697265625
 20
-9.2392578125
 10
28.9697265625
 20
-8.060546875
 10
28.64111328125
 20
-7.25439453125
 10
27.984375
 20
-6.8193359375
 10
27.3271484375
 20
-6.38525390625
 10
26.15087890625
 20
-6.16796875
 10
24.455078125
 20
-6.16796875
 10
24.455078125
 20
-6.16796875
 10
22.97265625
 20
-6.16796875
 10
22.97265625
 20
-6.16796875
 10
22.97265625
 20
-6.16796875
 10
22.97265625
 20
-12.1318359375
 10
22.97265625
 20
-12.1318359375
 10
22.97265625
 20
-12.1318359375
 10
24.48876953125
 20
-12.1318359375
 10
24.48876953125
 20
-12.1318359375
 10
25.65673828125
 20
-12.1318359375
 10
26.55517578125
 20
-12.0546875
 10
27.18408203125
 20
-11.89990234375
 10
27.81298828125
 20
-11.7451171875
 10
28.267578125
 20
-11.45947265625
 10
28.548828125
 20
-11.04248046875
 10
28.8291015625
 20
-10.6259765625
 10
28.9697265625
 20
-10.02490234375
 10
28.9697265625
 20
-9.2392578125
 97
        0
 75
     2
 76
     1
 98
        0
  0
SPLINE
  5
43
330
3C
100
AcDbEntity
  8
Layer 1
370
     0
100
AcDbSpline
210
0.0
220
0.0
230
1.0
 70
    11
 71
     3
 72
    62
 73
    58
 74
     0
 42
0.0000000001
 43
0.0000000001
 40
0.0
 40
0.0
 40
0.0
 40
0.0
 40
1.0
 40
1.0
 40
1.0
 40
2.0
 40
2.0
 40
2.0
 40
3.0
 40
3.0
 40
3.0
 40
4.0
 40
4.0
 40
4.0
 40
5.0
 40
5.0
 40
5.0
 40
6.0
 40
6.0
 40
6.0
 40
7.0
 40
7.0
 40
7.0
 40
8.0
 40
8.0
 40
8.0
 40
9.0
 40
9.0
 40
9.0
 40
10.0
 40
10.0
 40
10.0
 40
11.0
 40
11.0
 40
11.0
 40
12.0
 40
12.0
 40
12.0
 40
13.0
 40
13.0
 40
13.0
 40
14.0
 40
14.0
 40
14.0
 40
15.0
 40
15.0
 40
15.0
 40
16.0
 40
16.0
 40
16.0
 40
17.0
 40
17.0
 40
17.0
 40
18.0
 40
18.0
 40
18.0
 40
19.0
 40
19.0
 40
19.0
 40
19.0
 10
61.45361328125
 20
-26.1669921875
 30
0.0
 10
61.45361328125
 20
-26.1669921875
 30
0.0
 10
53.89013671875
 20
-26.1669921875
 30
0.0
 10
53.89013671875
 20
-26.1669921875
 30
0.0
 10
53.89013671875
 20
-26.1669921875
 30
0.0
 10
52.0537109375
 20
-21.7744140625
 30
0.0
 10
52.0537109375
 20
-21.7744140625
 30
0.0
 10
51.3798828125
 20
-20.1669921875
 30
0.0
 10
50.7734375
 20
-18.99169921875
 30
0.0
 10
50.234375
 20
-18.24755859375
 30
0.0
 10
49.6953125
 20
-17.50390625
 30
0.0
 10
49.17041015625
 20
-17.02734375
 30
0.0
 10
48.6591796875
 20
-16.8193359375
 30
0.0
 10
48.14794921875
 20
-16.61083984375
 30
0.0
 10
47.48876953125
 20
-16.5068359375
 30
0.0
 10
46.68017578125
 20
-16.5068359375
 30
0.0
 10
46.68017578125
 20
-16.5068359375
 30
0.0
 10
45.88818359375
 20
-16.5068359375
 30
0.0
 10
45.88818359375
 20
-16.5068359375
 30
0.0
 10
45.88818359375
 20
-16.5068359375
 30
0.0
 10
45.88818359375
 20
-26.1669921875
 30
0.0
 10
45.88818359375
 20
-26.1669921875
 30
0.0
 10
45.88818359375
 20
-26.1669921875
 30
0.0
 10
38.8466796875
 20
-26.1669921875
 30
0.0
 10
38.8466796875
 20
-26.1669921875
 30
0.0
 10
38.8466796875
 20
-26.1669921875
 30
0.0
 10
38.8466796875
 20
-1.41796875
 30
0.0
 10
38.8466796875
 20
-1.41796875
 30
0.0
 10
38.8466796875
 20
-1.41796875
 30
0.0
 10
50.82373046875
 20
-1.41796875
 30
0.0
 10
50.82373046875
 20
-1.41796875
 30
0.0
 10
52.75537109375
 20
-1.41796875
 30
0.0
 10
54.3388671875
 20
-1.8349609375
 30
0.0
 10
55.57470703125
 20
-2.66796875
 30
0.0
 10
56.8095703125
 20
-3.50146484375
 30
0.0
 10
57.69970703125
 20
-4.51318359375
 30
0.0
 10
58.24462890625
 20
-5.70361328125
 30
0.0
 10
58.7890625
 20
-6.89404296875
 30
0.0
 10
59.0615234375
 20
-8.02490234375
 30
0.0
 10
59.0615234375
 20
-9.09619140625
 30
0.0
 10
59.0615234375
 20
-10.34619140625
 30
0.0
 10
58.833984375
 20
-11.40283203125
 30
0.0
 10
58.37939453125
 20
-12.265625
 30
0.0
 10
57.92431640625
 20
-13.12890625
 30
0.0
 10
57.4443359375
 20
-13.7568359375
 30
0.0
 10
56.93896484375
 20
-14.1494140625
 30
0.0
 10
56.43359375
 20
-14.54248046875
 30
0.0
 10
55.8662109375
 20
-14.91748046875
 30
0.0
 10
55.23779296875
 20
-15.2744140625
 30
0.0
 10
55.98974609375
 20
-15.73876953125
 30
0.0
 10
56.6103515625
 20
-16.28955078125
 30
0.0
 10
57.09912109375
 20
-16.92626953125
 30
0.0
 10
57.58740234375
 20
-17.5634765625
 30
0.0
 10
58.2529296875
 20
-18.85205078125
 30
0.0
 10
59.09521484375
 20
-20.7919921875
 30
0.0
 10
59.09521484375
 20
-20.7919921875
 30
0.0
 10
61.45361328125
 20
-26.1669921875
 30
0.0
 10
61.45361328125
 20
-26.1669921875
 30
0.0
  0
SPLINE
  5
44
330
3C
100
AcDbEntity
  8
Layer 1
370
     0
100
AcDbSpline
210
0.0
220
0.0
230
1.0
 70
    11
 71
     3
 72
    26
 73
    22
 74
     0
 42
0.0000000001
 43
0.0000000001
 40
0.0
 40
0.0
 40
0.0
 40
0.0
 40
1.0
 40
1.0
 40
1.0
 40
2.0
 40
2.0
 40
2.0
 40
3.0
 40
3.0
 40
3.0
 40
4.0
 40
4.0
 40
4.0
 40
5.0
 40
5.0
 40
5.0
 40
6.0
 40
6.0
 40
6.0
 40
7.0
 40
7.0
 40
7.0
 40
7.0
 10
51.88525390625
 20
-9.2392578125
 30
0.0
 10
51.88525390625
 20
-8.09619140625
 30
0.0
 10
51.53173828125
 20
-7.298828125
 30
0.0
 10
50.82373046875
 20
-6.84619140625
 30
0.0
 10
50.11669921875
 20
-6.39404296875
 30
0.0
 10
48.96533203125
 20
-6.16796875
 30
0.0
 10
47.37060546875
 20
-6.16796875
 30
0.0
 10
47.37060546875
 20
-6.16796875
 30
0.0
 10
45.88818359375
 20
-6.16796875
 30
0.0
 10
45.88818359375
 20
-6.16796875
 30
0.0
 10
45.88818359375
 20
-6.16796875
 30
0.0
 10
45.88818359375
 20
-12.1318359375
 30
0.0
 10
45.88818359375
 20
-12.1318359375
 30
0.0
 10
45.88818359375
 20
-12.1318359375
 30
0.0
 10
47.404296875
 20
-12.1318359375
 30
0.0
 10
47.404296875
 20
-12.1318359375
 30
0.0
 10
49.12255859375
 20
-12.1318359375
 30
0.0
 10
50.298828125
 20
-11.9326171875
 30
0.0
 10
50.93359375
 20
-11.53369140625
 30
0.0
 10
51.56787109375
 20
-11.134765625
 30
0.0
 10
51.88525390625
 20
-10.3701171875
 30
0.0
 10
51.88525390625
 20
-9.2392578125
 30
0.0
  0
HATCH
  5
45
330
3C
100
AcDbEntity
  8
Layer 1
 62
     7
420
 16777215
100
AcDbHatch
 10
0.0
 20
0.0
 30
0.0
210
0.0
220
0.0
230
1.0
  2
SOLID
 70
     1
 71
     0
 91
        2
 92
        1
 93
        1
 72
     4
 94
        3
 73
     0
 74
     1
 95
       62
 96
       58
 40
0.0
 40
0.0
 40
0.0
 40
0.0
 40
1.0
 40
1.0
 40
1.0
 40
2.0
 40
2.0
 40
2.0
 40
3.0
 40
3.0
 40
3.0
 40
4.0
 40
4.0
 40
4.0
 40
5.0
 40
5.0
 40
5.0
 40
6.0
 40
6.0
 40
6.0
 40
7.0
 40
7.0
 40
7.0
 40
8.0
 40
8.0
 40
8.0
 40
9.0
 40
9.0
 40
9.0
 40
10.0
 40
10.0
 40
10.0
 40
11.0
 40
11.0
 40
11.0
 40
12.0
 40
12.0
 40
12.0
 40
13.0
 40
13.0
 40
13.0
 40
14.0
 40
14.0
 40
14.0
 40
15.0
 40
15.0
 40
15.0
 40
16.0
 40
16.0
 40
16.0
 40
17.0
 40
17.0
 40
17.0
 40
18.0
 40
18.0
 40
18.0
 40
19.0
 40
19.0
 40
19.0
 40
19.0
 10
61.45361328125
 20
-26.1669921875
 10
61.45361328125
 20
-26.1669921875
 10
53.89013671875
 20
-26.1669921875
 10
53.89013671875
 20
-26.1669921875
 10
53.89013671875
 20
-26.1669921875
 10
52.0537109375
 20
-21.7744140625
 10
52.0537109375
 20
-21.7744140625
 10
51.3798828125
 20
-20.1669921875
 10
50.7734375
 20
-18.99169921875
 10
50.234375
 20
-18.24755859375
 10
49.6953125
 20
-17.50390625
 10
49.17041015625
 20
-17.02734375
 10
48.6591796875
 20
-16.8193359375
 10
48.14794921875
 20
-16.61083984375
 10
47.48876953125
 20
-16.5068359375
 10
46.68017578125
 20
-16.5068359375
 10
46.68017578125
 20
-16.5068359375
 10
45.88818359375
 20
-16.5068359375
 10
45.88818359375
 20
-16.5068359375
 10
45.88818359375
 20
-16.5068359375
 10
45.88818359375
 20
-26.1669921875
 10
45.88818359375
 20
-26.1669921875
 10
45.88818359375
 20
-26.1669921875
 10
38.8466796875
 20
-26.1669921875
 10
38.8466796875
 20
-26.1669921875
 10
38.8466796875
 20
-26.1669921875
 10
38.8466796875
 20
-1.41796875
 10
38.8466796875
 20
-1.41796875
 10
38.8466796875
 20
-1.41796875
 10
50.82373046875
 20
-1.41796875
 10
50.82373046875
 20
-1.41796875
 10
52.75537109375
 20
-1.41796875
 10
54.3388671875
 20
-1.8349609375
 10
55.57470703125
 20
-2.66796875
 10
56.8095703125
 20
-3.50146484375
 10
57.69970703125
 20
-4.51318359375
 10
58.24462890625
 20
-5.70361328125
 10
58.7890625
 20
-6.89404296875
 10
59.0615234375
 20
-8.02490234375
 10
59.0615234375
 20
-9.09619140625
 10
59.0615234375
 20
-10.34619140625
 10
58.833984375
 20
-11.40283203125
 10
58.37939453125
 20
-12.265625
 10
57.92431640625
 20
-13.12890625
 10
57.4443359375
 20
-13.7568359375
 10
56.93896484375
 20
-14.1494140625
 10
56.43359375
 20
-14.54248046875
 10
55.8662109375
 20
-14.91748046875
 10
55.23779296875
 20
-15.2744140625
 10
55.98974609375
 20
-15.73876953125
 10
56.6103515625
 20
-16.28955078125
 10
57.09912109375
 20
-16.92626953125
 10
57.58740234375
 20
-17.5634765625
 10
58.2529296875
 20
-18.85205078125
 10
59.09521484375
 20
-20.7919921875
 10
59.09521484375
 20
-20.7919921875
 10
61.45361328125
 20
-26.1669921875
 10
61.45361328125
 20
-26.1669921875
 97
        0
 92
        1
 93
        1
 72
     4
 94
        3
 73
     0
 74
     1
 95
       26
 96
       22
 40
0.0
 40
0.0
 40
0.0
 40
0.0
 40
1.0
 40
1.0
 40
1.0
 40
2.0
 40
2.0
 40
2.0
 40
3.0
 40
3.0
 40
3.0
 40
4.0
 40
4.0
 40
4.0
 40
5.0
 40
5.0
 40
5.0
 40
6.0
 40
6.0
 40
6.0
 40
7.0
 40
7.0
 40
7.0
 40
7.0
 10
51.88525390625
 20
-9.2392578125
 10
51.88525390625
 20
-8.09619140625
 10
51.53173828125
 20
-7.298828125
 10
50.82373046875
 20
-6.84619140625
 10
50.11669921875
 20
-6.39404296875
 10
48.96533203125
 20
-6.16796875
 10
47.37060546875
 20
-6.16796875
 10
47.37060546875
 20
-6.16796875
 10
45.88818359375
 20
-6.16796875
 10
45.88818359375
 20
-6.16796875
 10
45.88818359375
 20
-6.16796875
 10
45.88818359375
 20
-12.1318359375
 10
45.88818359375
 20
-12.1318359375
 10
45.88818359375
 20
-12.1318359375
 10
47.404296875
 20
-12.1318359375
 10
47.404296875
 20
-12.1318359375
 10
49.12255859375
 20
-12.1318359375
 10
50.298828125
 20
-11.9326171875
 10
50.93359375
 20
-11.53369140625
 10
51.56787109375
 20
-11.134765625
 10
51.88525390625
 20
-10.3701171875
 10
51.88525390625
 20
-9.2392578125
 97
        0
 75
     2
 76
     1
 98
        0
  0
SPLINE
  5
46
330
3C
100
AcDbEntity
  8
Layer 1
370
     0
100
AcDbSpline
210
0.0
220
0.0
230
1.0
 70
    11
 71
     3
 72
    44
 73
    40
 74
     0
 42
0.0000000001
 43
0.0000000001
 40
0.0
 40
0.0
 40
0.0
 40
0.0
 40
1.0
 40
1.0
 40
1.0
 40
2.0
 40
2.0
 40
2.0
 40
3.0
 40
3.0
 40
3.0
 40
4.0
 40
4.0
 40
4.0
 40
5.0
 40
5.0
 40
5.0
 40
6.0
 40
6.0
 40
6.0
 40
7.0
 40
7.0
 40
7.0
 40
8.0
 40
8.0
 40
8.0
 40
9.0
 40
9.0
 40
9.0
 40
10.0
 40
10.0
 40
10.0
 40
11.0
 40
11.0
 40
11.0
 40
12.0
 40
12.0
 40
12.0
 40
13.0
 40
13.0
 40
13.0
 40
13.0
 10
88.4287109375
 20
-13.7744140625
 30
0.0
 10
88.4287109375
 20
-16.08447265625
 30
0.0
 10
87.92626953125
 20
-18.208984375
 30
0.0
 10
86.92138671875
 20
-20.1494140625
 30
0.0
 10
85.916015625
 20
-22.08984375
 30
0.0
 10
84.419921875
 20
-23.63134765625
 30
0.0
 10
82.431640625
 20
-24.7744140625
 30
0.0
 10
80.4443359375
 20
-25.9169921875
 30
0.0
 10
78.02392578125
 20
-26.48828125
 30
0.0
 10
75.17138671875
 20
-26.48828125
 30
0.0
 10
72.28515625
 20
-26.48828125
 30
0.0
 10
69.84228515625
 20
-25.89306640625
 30
0.0
 10
67.84375
 20
-24.70263671875
 30
0.0
 10
65.84423828125
 20
-23.5126953125
 30
0.0
 10
64.35888671875
 20
-21.94677734375
 30
0.0
 10
63.3876953125
 20
-20.00634765625
 30
0.0
 10
62.41650390625
 20
-18.06640625
 30
0.0
 10
61.9306640625
 20
-15.98876953125
 30
0.0
 10
61.9306640625
 20
-13.7744140625
 30
0.0
 10
61.9306640625
 20
-11.548828125
 30
0.0
 10
62.41357421875
 20
-9.46826171875
 30
0.0
 10
63.37939453125
 20
-7.53369140625
 30
0.0
 10
64.34521484375
 20
-5.599609375
 30
0.0
 10
65.83056640625
 20
-4.0400390625
 30
0.0
 10
67.8349609375
 20
-2.85546875
 30
0.0
 10
69.83984375
 20
-1.6708984375
 30
0.0
 10
72.28515625
 20
-1.07861328125
 30
0.0
 10
75.17138671875
 20
-1.07861328125
 30
0.0
 10
77.32763671875
 20
-1.07861328125
 30
0.0
 10
79.25048828125
 20
-1.41796875
 30
0.0
 10
80.94091796875
 20
-2.0966796875
 30
0.0
 10
82.63134765625
 20
-2.77490234375
 30
0.0
 10
84.02099609375
 20
-3.69482421875
 30
0.0
 10
85.1103515625
 20
-4.85546875
 30
0.0
 10
86.19970703125
 20
-6.01611328125
 30
0.0
 10
87.02490234375
 20
-7.3671875
 30
0.0
 10
87.5869140625
 20
-8.90869140625
 30
0.0
 10
88.14794921875
 20
-10.45068359375
 30
0.0
 10
88.4287109375
 20
-12.072265625
 30
0.0
 10
88.4287109375
 20
-13.7744140625
 30
0.0
  0
SPLINE
  5
47
330
3C
100
AcDbEntity
  8
Layer 1
370
     0
100
AcDbSpline
210
0.0
220
0.0
230
1.0
 70
    11
 71
     3
 72
    38
 73
    34
 74
     0
 42
0.0000000001
 43
0.0000000001
 40
0.0
 40
0.0
 40
0.0
 40
0.0
 40
1.0
 40
1.0
 40
1.0
 40
2.0
 40
2.0
 40
2.0
 40
3.0
 40
3.0
 40
3.0
 40
4.0
 40
4.0
 40
4.0
 40
5.0
 40
5.0
 40
5.0
 40
6.0
 40
6.0
 40
6.0
 40
7.0
 40
7.0
 40
7.0
 40
8.0
 40
8.0
 40
8.0
 40
9.0
 40
9.0
 40
9.0
 40
10.0
 40
10.0
 40
10.0
 40
11.0
 40
11.0
 40
11.0
 40
11.0
 10
81.2529296875
 20
-13.7744140625
 30
0.0
 10
81.2529296875
 20
-12.84619140625
 30
0.0
 10
81.12353515625
 20
-11.998046875
 30
0.0
 10
80.865234375
 20
-11.22998046875
 30
0.0
 10
80.60693359375
 20
-10.46240234375
 30
0.0
 10
80.216796875
 20
-9.7958984375
 30
0.0
 10
79.6943359375
 20
-9.22998046875
 30
0.0
 10
79.17236328125
 20
-8.6650390625
 30
0.0
 10
78.53466796875
 20
-8.22412109375
 30
0.0
 10
77.7822265625
 20
-7.90869140625
 30
0.0
 10
77.02978515625
 20
-7.59326171875
 30
0.0
 10
76.15966796875
 20
-7.435546875
 30
0.0
 10
75.17138671875
 20
-7.435546875
 30
0.0
 10
73.28466796875
 20
-7.435546875
 30
0.0
 10
71.80224609375
 20
-8.01904296875
 30
0.0
 10
70.72412109375
 20
-9.185546875
 30
0.0
 10
69.64599609375
 20
-10.3525390625
 30
0.0
 10
69.10693359375
 20
-11.8818359375
 30
0.0
 10
69.10693359375
 20
-13.7744140625
 30
0.0
 10
69.10693359375
 20
-15.66748046875
 30
0.0
 10
69.6484375
 20
-17.2001953125
 30
0.0
 10
70.732421875
 20
-18.37255859375
 30
0.0
 10
71.81640625
 20
-19.54541015625
 30
0.0
 10
73.2958984375
 20
-20.13134765625
 30
0.0
 10
75.17138671875
 20
-20.13134765625
 30
0.0
 10
76.462890625
 20
-20.13134765625
 30
0.0
 10
77.5634765625
 20
-19.86083984375
 30
0.0
 10
78.47314453125
 20
-19.31884765625
 30
0.0
 10
79.3828125
 20
-18.77734375
 30
0.0
 10
80.0732421875
 20
-18.02734375
 30
0.0
 10
80.544921875
 20
-17.0693359375
 30
0.0
 10
81.0166015625
 20
-16.11083984375
 30
0.0
 10
81.2529296875
 20
-15.0126953125
 30
0.0
 10
81.2529296875
 20
-13.7744140625
 30
0.0
  0
HATCH
  5
48
330
3C
100
AcDbEntity
  8
Layer 1
 62
     7
420
 16777215
100
AcDbHatch
 10
0.0
 20
0.0
 30
0.0
210
0.0
220
0.0
230
1.0
  2
SOLID
 70
     1
 71
     0
 91
        2
 92
        1
 93
        1
 72
     4
 94
        3
 73
     0
 74
     1
 95
       44
 96
       40
 40
0.0
 40
0.0
 40
0.0
 40
0.0
 40
1.0
 40
1.0
 40
1.0
 40
2.0
 40
2.0
 40
2.0
 40
3.0
 40
3.0
 40
3.0
 40
4.0
 40
4.0
 40
4.0
 40
5.0
 40
5.0
 40
5.0
 40
6.0
 40
6.0
 40
6.0
 40
7.0
 40
7.0
 40
7.0
 40
8.0
 40
8.0
 40
8.0
 40
9.0
 40
9.0
 40
9.0
 40
10.0
 40
10.0
 40
10.0
 40
11.0
 40
11.0
 40
11.0
 40
12.0
 40
12.0
 40
12.0
 40
13.0
 40
13.0
 40
13.0
 40
13.0
 10
88.4287109375
 20
-13.7744140625
 10
88.4287109375
 20
-16.08447265625
 10
87.92626953125
 20
-18.208984375
 10
86.92138671875
 20
-20.1494140625
 10
85.916015625
 20
-22.08984375
 10
84.419921875
 20
-23.63134765625
 10
82.431640625
 20
-24.7744140625
 10
80.4443359375
 20
-25.9169921875
 10
78.02392578125
 20
-26.48828125
 10
75.17138671875
 20
-26.48828125
 10
72.28515625
 20
-26.48828125
 10
69.84228515625
 20
-25.89306640625
 10
67.84375
 20
-24.70263671875
 10
65.84423828125
 20
-23.5126953125
 10
64.35888671875
 20
-21.94677734375
 10
63.3876953125
 20
-20.00634765625
 10
62.41650390625
 20
-18.06640625
 10
61.9306640625
 20
-15.98876953125
 10
61.9306640625
 20
-13.7744140625
 10
61.9306640625
 20
-11.548828125
 10
62.41357421875
 20
-9.46826171875
 10
63.37939453125
 20
-7.53369140625
 10
64.34521484375
 20
-5.599609375
 10
65.83056640625
 20
-4.0400390625
 10
67.8349609375
 20
-2.85546875
 10
69.83984375
 20
-1.6708984375
 10
72.28515625
 20
-1.07861328125
 10
75.17138671875
 20
-1.07861328125
 10
77.32763671875
 20
-1.07861328125
 10
79.25048828125
 20
-1.41796875
 10
80.94091796875
 20
-2.0966796875
 10
82.63134765625
 20
-2.77490234375
 10
84.02099609375
 20
-3.69482421875
 10
85.1103515625
 20
-4.85546875
 10
86.19970703125
 20
-6.01611328125
 10
87.02490234375
 20
-7.3671875
 10
87.5869140625
 20
-8.90869140625
 10
88.14794921875
 20
-10.45068359375
 10
88.4287109375
 20
-12.072265625
 10
88.4287109375
 20
-13.7744140625
 97
        0
 92
        1
 93
        1
 72
     4
 94
        3
 73
     0
 74
     1
 95
       38
 96
       34
 40
0.0
 40
0.0
 40
0.0
 40
0.0
 40
1.0
 40
1.0
 40
1.0
 40
2.0
 40
2.0
 40
2.0
 40
3.0
 40
3.0
 40
3.0
 40
4.0
 40
4.0
 40
4.0
 40
5.0
 40
5.0
 40
5.0
 40
6.0
 40
6.0
 40
6.0
 40
7.0
 40
7.0
 40
7.0
 40
8.0
 40
8.0
 40
8.0
 40
9.0
 40
9.0
 40
9.0
 40
10.0
 40
10.0
 40
10.0
 40
11.0
 40
11.0
 40
11.0
 40
11.0
 10
81.2529296875
 20
-13.7744140625
 10
81.2529296875
 20
-12.84619140625
 10
81.12353515625
 20
-11.998046875
 10
80.865234375
 20
-11.22998046875
 10
80.60693359375
 20
-10.46240234375
 10
80.216796875
 20
-9.7958984375
 10
79.6943359375
 20
-9.22998046875
 10
79.17236328125
 20
-8.6650390625
 10
78.53466796875
 20
-8.22412109375
 10
77.7822265625
 20
-7.90869140625
 10
77.02978515625
 20
-7.59326171875
 10
76.15966796875
 20
-7.435546875
 10
75.17138671875
 20
-7.435546875
 10
73.28466796875
 20
-7.435546875
 10
71.80224609375
 20
-8.01904296875
 10
70.72412109375
 20
-9.185546875
 10
69.64599609375
 20
-10.3525390625
 10
69.10693359375
 20
-11.8818359375
 10
69.10693359375
 20
-13.7744140625
 10
69.10693359375
 20
-15.66748046875
 10
69.6484375
 20
-17.2001953125
 10
70.732421875
 20
-18.37255859375
 10
71.81640625
 20
-19.54541015625
 10
73.2958984375
 20
-20.13134765625
 10
75.17138671875
 20
-20.13134765625
 10
76.462890625
 20
-20.13134765625
 10
77.5634765625
 20
-19.86083984375
 10
78.47314453125
 20
-19.31884765625
 10
79.3828125
 20
-18.77734375
 10
80.0732421875
 20
-18.02734375
 10
80.544921875
 20
-17.0693359375
 10
81.0166015625
 20
-16.11083984375
 10
81.2529296875
 20
-15.0126953125
 10
81.2529296875
 20
-13.7744140625
 97
        0
 75
     2
 76
     1
 98
        0
  0
POLYLINE
  5
49
330
3C
100
AcDbEntity
  8
Layer 1
370
     0
100
AcDb2dPolyline
 66
     1
 10
0.0
 20
0.0
 30
0.0
  0
VERTEX
  5
4A
330
49
100
AcDbEntity
  8
Layer 1
370
     0
100
AcDbVertex
100
AcDb2dVertex
 10
112.0185546875
 20
-7.435546875
 30
0.0
  0
VERTEX
  5
4B
330
49
100
AcDbEntity
  8
Layer 1
370
     0
100
AcDbVertex
100
AcDb2dVertex
 10
103.4609375
 20
-7.435546875
 30
0.0
  0
VERTEX
  5
4C
330
49
100
AcDbEntity
  8
Layer 1
370
     0
100
AcDbVertex
100
AcDb2dVertex
 10
103.4609375
 20
-26.1669921875
 30
0.0
  0
VERTEX
  5
4D
330
49
100
AcDbEntity
  8
Layer 1
370
     0
100
AcDbVertex
100
AcDb2dVertex
 10
96.43603515625
 20
-26.1669921875
 30
0.0
  0
VERTEX
  5
4E
330
49
100
AcDbEntity
  8
Layer 1
370
     0
100
AcDbVertex
100
AcDb2dVertex
 10
96.43603515625
 20
-7.435546875
 30
0.0
  0
VERTEX
  5
4F
330
49
100
AcDbEntity
  8
Layer 1
370
     0
100
AcDbVertex
100
AcDb2dVertex
 10
87.87841796875
 20
-7.435546875
 30
0.0
  0
VERTEX
  5
50
330
49
100
AcDbEntity
  8
Layer 1
370
     0
100
AcDbVertex
100
AcDb2dVertex
 10
87.87841796875
 20
-1.41796875
 30
0.0
  0
VERTEX
  5
51
330
49
100
AcDbEntity
  8
Layer 1
370
     0
100
AcDbVertex
100
AcDb2dVertex
 10
112.0185546875
 20
-1.41796875
 30
0.0
  0
VERTEX
  5
52
330
49
100
AcDbEntity
  8
Layer 1
370
     0
100
AcDbVertex
100
AcDb2dVertex
 10
112.0185546875
 20
-7.435546875
 30
0.0
  0
SEQEND
  5
53
330
49
100
AcDbEntity
  8
Layer 1
370
     0
  0
HATCH
  5
54
330
3C
100
AcDbEntity
  8
Layer 1
 62
     7
420
 16777215
100
AcDbHatch
 10
0.0
 20
0.0
 30
0.0
210
0.0
220
0.0
230
1.0
  2
SOLID
 70
     1
 71
     0
 91
        1
 92
        1
 93
        8
 72
     1
 10
112.0185546875
 20
-7.435546875
 11
103.4609375
 21
-7.435546875
 72
     1
 10
103.4609375
 20
-7.435546875
 11
103.4609375
 21
-26.1669921875
 72
     1
 10
103.4609375
 20
-26.1669921875
 11
96.43603515625
 21
-26.1669921875
 72
     1
 10
96.43603515625
 20
-26.1669921875
 11
96.43603515625
 21
-7.435546875
 72
     1
 10
96.43603515625
 20
-7.435546875
 11
87.87841796875
 21
-7.435546875
 72
     1
 10
87.87841796875
 20
-7.435546875
 11
87.87841796875
 21
-1.41796875
 72
     1
 10
87.87841796875
 20
-1.41796875
 11
112.0185546875
 21
-1.41796875
 72
     1
 10
112.0185546875
 20
-1.41796875
 11
112.0185546875
 21
-7.435546875
 97
        0
 75
     2
 76
     1
 98
        0
  0
SPLINE
  5
55
330
3C
100
AcDbEntity
  8
Layer 1
370
     0
100
AcDbSpline
210
0.0
220
0.0
230
1.0
 70
    11
 71
     3
 72
    44
 73
    40
 74
     0
 42
0.0000000001
 43
0.0000000001
 40
0.0
 40
0.0
 40
0.0
 40
0.0
 40
1.0
 40
1.0
 40
1.0
 40
2.0
 40
2.0
 40
2.0
 40
3.0
 40
3.0
 40
3.0
 40
4.0
 40
4.0
 40
4.0
 40
5.0
 40
5.0
 40
5.0
 40
6.0
 40
6.0
 40
6.0
 40
7.0
 40
7.0
 40
7.0
 40
8.0
 40
8.0
 40
8.0
 40
9.0
 40
9.0
 40
9.0
 40
10.0
 40
10.0
 40
10.0
 40
11.0
 40
11.0
 40
11.0
 40
12.0
 40
12.0
 40
12.0
 40
13.0
 40
13.0
 40
13.0
 40
13.0
 10
137.9326171875
 20
-13.7744140625
 30
0.0
 10
137.9326171875
 20
-16.08447265625
 30
0.0
 10
137.4287109375
 20
-18.208984375
 30
0.0
 10
136.4248046875
 20
-20.1494140625
 30
0.0
 10
135.4189453125
 20
-22.08984375
 30
0.0
 10
133.9228515625
 20
-23.63134765625
 30
0.0
 10
131.9345703125
 20
-24.7744140625
 30
0.0
 10
129.9482421875
 20
-25.9169921875
 30
0.0
 10
127.5263671875
 20
-26.48828125
 30
0.0
 10
124.6748046875
 20
-26.48828125
 30
0.0
 10
121.7880859375
 20
-26.48828125
 30
0.0
 10
119.3466796875
 20
-25.89306640625
 30
0.0
 10
117.3466796875
 20
-24.70263671875
 30
0.0
 10
115.3486328125
 20
-23.5126953125
 30
0.0
 10
113.8623046875
 20
-21.94677734375
 30
0.0
 10
112.8916015625
 20
-20.00634765625
 30
0.0
 10
111.919921875
 20
-18.06640625
 30
0.0
 10
111.43359375
 20
-15.98876953125
 30
0.0
 10
111.43359375
 20
-13.7744140625
 30
0.0
 10
111.43359375
 20
-11.548828125
 30
0.0
 10
111.9169921875
 20
-9.46826171875
 30
0.0
 10
112.8828125
 20
-7.53369140625
 30
0.0
 10
113.8486328125
 20
-5.599609375
 30
0.0
 10
115.3330078125
 20
-4.0400390625
 30
0.0
 10
117.3388671875
 20
-2.85546875
 30
0.0
 10
119.3427734375
 20
-1.6708984375
 30
0.0
 10
121.7880859375
 20
-1.07861328125
 30
0.0
 10
124.6748046875
 20
-1.07861328125
 30
0.0
 10
126.8310546875
 20
-1.07861328125
 30
0.0
 10
128.7548828125
 20
-1.41796875
 30
0.0
 10
130.4443359375
 20
-2.0966796875
 30
0.0
 10
132.1337890625
 20
-2.77490234375
 30
0.0
 10
133.5244140625
 20
-3.69482421875
 30
0.0
 10
134.6142578125
 20
-4.85546875
 30
0.0
 10
135.7021484375
 20
-6.01611328125
 30
0.0
 10
136.5283203125
 20
-7.3671875
 30
0.0
 10
137.0908203125
 20
-8.90869140625
 30
0.0
 10
137.6513671875
 20
-10.45068359375
 30
0.0
 10
137.9326171875
 20
-12.072265625
 30
0.0
 10
137.9326171875
 20
-13.7744140625
 30
0.0
  0
SPLINE
  5
56
330
3C
100
AcDbEntity
  8
Layer 1
370
     0
100
AcDbSpline
210
0.0
220
0.0
230
1.0
 70
    11
 71
     3
 72
    38
 73
    34
 74
     0
 42
0.0000000001
 43
0.0000000001
 40
0.0
 40
0.0
 40
0.0
 40
0.0
 40
1.0
 40
1.0
 40
1.0
 40
2.0
 40
2.0
 40
2.0
 40
3.0
 40
3.0
 40
3.0
 40
4.0
 40
4.0
 40
4.0
 40
5.0
 40
5.0
 40
5.0
 40
6.0
 40
6.0
 40
6.0
 40
7.0
 40
7.0
 40
7.0
 40
8.0
 40
8.0
 40
8.0
 40
9.0
 40
9.0
 40
9.0
 40
10.0
 40
10.0
 40
10.0
 40
11.0
 40
11.0
 40
11.0
 40
11.0
 10
130.7568359375
 20
-13.7744140625
 30
0.0
 10
130.7568359375
 20
-12.84619140625
 30
0.0
 10
130.6259765625
 20
-11.998046875
 30
0.0
 10
130.3681640625
 20
-11.22998046875
 30
0.0
 10
130.1103515625
 20
-10.46240234375
 30
0.0
 10
129.7197265625
 20
-9.7958984375
 30
0.0
 10
129.1982421875
 20
-9.22998046875
 30
0.0
 10
128.6748046875
 20
-8.6650390625
 30
0.0
 10
128.0380859375
 20
-8.22412109375
 30
0.0
 10
127.2861328125
 20
-7.90869140625
 30
0.0
 10
126.5341796875
 20
-7.59326171875
 30
0.0
 10
125.6630859375
 20
-7.435546875
 30
0.0
 10
124.6748046875
 20
-7.435546875
 30
0.0
 10
122.7880859375
 20
-7.435546875
 30
0.0
 10
121.3056640625
 20
-8.01904296875
 30
0.0
 10
120.2275390625
 20
-9.185546875
 30
0.0
 10
119.1494140625
 20
-10.3525390625
 30
0.0
 10
118.6103515625
 20
-11.8818359375
 30
0.0
 10
118.6103515625
 20
-13.7744140625
 30
0.0
 10
118.6103515625
 20
-15.66748046875
 30
0.0
 10
119.1513671875
 20
-17.2001953125
 30
0.0
 10
120.2353515625
 20
-18.37255859375
 30
0.0
 10
121.3193359375
 20
-19.54541015625
 30
0.0
 10
122.7998046875
 20
-20.13134765625
 30
0.0
 10
124.6748046875
 20
-20.13134765625
 30
0.0
 10
125.9658203125
 20
-20.13134765625
 30
0.0
 10
127.0673828125
 20
-19.86083984375
 30
0.0
 10
127.9755859375
 20
-19.31884765625
 30
0.0
 10
128.8857421875
 20
-18.77734375
 30
0.0
 10
129.5771484375
 20
-18.02734375
 30
0.0
 10
130.0478515625
 20
-17.0693359375
 30
0.0
 10
130.5205078125
 20
-16.11083984375
 30
0.0
 10
130.7568359375
 20
-15.0126953125
 30
0.0
 10
130.7568359375
 20
-13.7744140625
 30
0.0
  0
HATCH
  5
57
330
3C
100
AcDbEntity
  8
Layer 1
 62
     7
420
 16777215
100
AcDbHatch
 10
0.0
 20
0.0
 30
0.0
210
0.0
220
0.0
230
1.0
  2
SOLID
 70
     1
 71
     0
 91
        2
 92
        1
 93
        1
 72
     4
 94
        3
 73
     0
 74
     1
 95
       44
 96
       40
 40
0.0
 40
0.0
 40
0.0
 40
0.0
 40
1.0
 40
1.0
 40
1.0
 40
2.0
 40
2.0
 40
2.0
 40
3.0
 40
3.0
 40
3.0
 40
4.0
 40
4.0
 40
4.0
 40
5.0
 40
5.0
 40
5.0
 40
6.0
 40
6.0
 40
6.0
 40
7.0
 40
7.0
 40
7.0
 40
8.0
 40
8.0
 40
8.0
 40
9.0
 40
9.0
 40
9.0
 40
10.0
 40
10.0
 40
10.0
 40
11.0
 40
11.0
 40
11.0
 40
12.0
 40
12.0
 40
12.0
 40
13.0
 40
13.0
 40
13.0
 40
13.0
 10
137.9326171875
 20
-13.7744140625
 10
137.9326171875
 20
-16.08447265625
 10
137.4287109375
 20
-18.208984375
 10
136.4248046875
 20
-20.1494140625
 10
135.4189453125
 20
-22.08984375
 10
133.9228515625
 20
-23.63134765625
 10
131.9345703125
 20
-24.7744140625
 10
129.9482421875
 20
-25.9169921875
 10
127.5263671875
 20
-26.48828125
 10
124.6748046875
 20
-26.48828125
 10
121.7880859375
 20
-26.48828125
 10
119.3466796875
 20
-25.89306640625
 10
117.3466796875
 20
-24.70263671875
 10
115.3486328125
 20
-23.5126953125
 10
113.8623046875
 20
-21.94677734375
 10
112.8916015625
 20
-20.00634765625
 10
111.919921875
 20
-18.06640625
 10
111.43359375
 20
-15.98876953125
 10
111.43359375
 20
-13.7744140625
 10
111.43359375
 20
-11.548828125
 10
111.9169921875
 20
-9.46826171875
 10
112.8828125
 20
-7.53369140625
 10
113.8486328125
 20
-5.599609375
 10
115.3330078125
 20
-4.0400390625
 10
117.3388671875
 20
-2.85546875
 10
119.3427734375
 20
-1.6708984375
 10
121.7880859375
 20
-1.07861328125
 10
124.6748046875
 20
-1.07861328125
 10
126.8310546875
 20
-1.07861328125
 10
128.7548828125
 20
-1.41796875
 10
130.4443359375
 20
-2.0966796875
 10
132.1337890625
 20
-2.77490234375
 10
133.5244140625
 20
-3.69482421875
 10
134.6142578125
 20
-4.85546875
 10
135.7021484375
 20
-6.01611328125
 10
136.5283203125
 20
-7.3671875
 10
137.0908203125
 20
-8.90869140625
 10
137.6513671875
 20
-10.45068359375
 10
137.9326171875
 20
-12.072265625
 10
137.9326171875
 20
-13.7744140625
 97
        0
 92
        1
 93
        1
 72
     4
 94
        3
 73
     0
 74
     1
 95
       38
 96
       34
 40
0.0
 40
0.0
 40
0.0
 40
0.0
 40
1.0
 40
1.0
 40
1.0
 40
2.0
 40
2.0
 40
2.0
 40
3.0
 40
3.0
 40
3.0
 40
4.0
 40
4.0
 40
4.0
 40
5.0
 40
5.0
 40
5.0
 40
6.0
 40
6.0
 40
6.0
 40
7.0
 40
7.0
 40
7.0
 40
8.0
 40
8.0
 40
8.0
 40
9.0
 40
9.0
 40
9.0
 40
10.0
 40
10.0
 40
10.0
 40
11.0
 40
11.0
 40
11.0
 40
11.0
 10
130.7568359375
 20
-13.7744140625
 10
130.7568359375
 20
-12.84619140625
 10
130.6259765625
 20
-11.998046875
 10
130.3681640625
 20
-11.22998046875
 10
130.1103515625
 20
-10.46240234375
 10
129.7197265625
 20
-9.7958984375
 10
129.1982421875
 20
-9.22998046875
 10
128.6748046875
 20
-8.6650390625
 10
128.0380859375
 20
-8.22412109375
 10
127.2861328125
 20
-7.90869140625
 10
126.5341796875
 20
-7.59326171875
 10
125.6630859375
 20
-7.435546875
 10
124.6748046875
 20
-7.435546875
 10
122.7880859375
 20
-7.435546875
 10
121.3056640625
 20
-8.01904296875
 10
120.2275390625
 20
-9.185546875
 10
119.1494140625
 20
-10.3525390625
 10
118.6103515625
 20
-11.8818359375
 10
118.6103515625
 20
-13.7744140625
 10
118.6103515625
 20
-15.66748046875
 10
119.1513671875
 20
-17.2001953125
 10
120.2353515625
 20
-18.37255859375
 10
121.3193359375
 20
-19.54541015625
 10
122.7998046875
 20
-20.13134765625
 10
124.6748046875
 20
-20.13134765625
 10
125.9658203125
 20
-20.13134765625
 10
127.0673828125
 20
-19.86083984375
 10
127.9755859375
 20
-19.31884765625
 10
128.8857421875
 20
-18.77734375
 10
129.5771484375
 20
-18.02734375
 10
130.0478515625
 20
-17.0693359375
 10
130.5205078125
 20
-16.11083984375
 10
130.7568359375
 20
-15.0126953125
 10
130.7568359375
 20
-13.7744140625
 97
        0
 75
     2
 76
     1
 98
        0
  0
SPLINE
  5
58
330
3C
100
AcDbEntity
  8
Layer 1
370
     0
100
AcDbSpline
210
0.0
220
0.0
230
1.0
 70
    11
 71
     3
 72
    80
 73
    76
 74
     0
 42
0.0000000001
 43
0.0000000001
 40
0.0
 40
0.0
 40
0.0
 40
0.0
 40
1.0
 40
1.0
 40
1.0
 40
2.0
 40
2.0
 40
2.0
 40
3.0
 40
3.0
 40
3.0
 40
4.0
 40
4.0
 40
4.0
 40
5.0
 40
5.0
 40
5.0
 40
6.0
 40
6.0
 40
6.0
 40
7.0
 40
7.0
 40
7.0
 40
8.0
 40
8.0
 40
8.0
 40
9.0
 40
9.0
 40
9.0
 40
10.0
 40
10.0
 40
10.0
 40
11.0
 40
11.0
 40
11.0
 40
12.0
 40
12.0
 40
12.0
 40
13.0
 40
13.0
 40
13.0
 40
14.0
 40
14.0
 40
14.0
 40
15.0
 40
15.0
 40
15.0
 40
16.0
 40
16.0
 40
16.0
 40
17.0
 40
17.0
 40
17.0
 40
18.0
 40
18.0
 40
18.0
 40
19.0
 40
19.0
 40
19.0
 40
20.0
 40
20.0
 40
20.0
 40
21.0
 40
21.0
 40
21.0
 40
22.0
 40
22.0
 40
22.0
 40
23.0
 40
23.0
 40
23.0
 40
24.0
 40
24.0
 40
24.0
 40
25.0
 40
25.0
 40
25.0
 40
25.0
 10
162.0107421875
 20
-24.31005859375
 30
0.0
 10
161.044921875
 20
-24.845703125
 30
0.0
 10
160.056640625
 20
-25.2744140625
 30
0.0
 10
159.0458984375
 20
-25.595703125
 30
0.0
 10
158.03515625
 20
-25.9169921875
 30
0.0
 10
157.015625
 20
-26.146484375
 30
0.0
 10
155.98828125
 20
-26.283203125
 30
0.0
 10
154.9609375
 20
-26.419921875
 30
0.0
 10
153.896484375
 20
-26.48828125
 30
0.0
 10
152.7958984375
 20
-26.48828125
 30
0.0
 10
150.7626953125
 20
-26.48828125
 30
0.0
 10
148.9404296875
 20
-26.19091796875
 30
0.0
 10
147.3291015625
 20
-25.595703125
 30
0.0
 10
145.7177734375
 20
-25.00048828125
 30
0.0
 10
144.3193359375
 20
-24.12255859375
 30
0.0
 10
143.134765625
 20
-22.9619140625
 30
0.0
 10
141.9501953125
 20
-21.80126953125
 30
0.0
 10
141.0625
 20
-20.44384765625
 30
0.0
 10
140.4736328125
 20
-18.890625
 30
0.0
 10
139.8837890625
 20
-17.3369140625
 30
0.0
 10
139.5888671875
 20
-15.6318359375
 30
0.0
 10
139.5888671875
 20
-13.7744140625
 30
0.0
 10
139.5888671875
 20
-11.64404296875
 30
0.0
 10
139.9365234375
 20
-9.77783203125
 30
0.0
 10
140.6328125
 20
-8.1767578125
 30
0.0
 10
141.3291015625
 20
-6.57568359375
 30
0.0
 10
142.3037109375
 20
-5.24560546875
 30
0.0
 10
143.5556640625
 20
-4.185546875
 30
0.0
 10
144.80859375
 20
-3.12646484375
 30
0.0
 10
146.234375
 20
-2.34375
 30
0.0
 10
147.8349609375
 20
-1.83740234375
 30
0.0
 10
149.435546875
 20
-1.33154296875
 30
0.0
 10
151.1220703125
 20
-1.07861328125
 30
0.0
 10
152.896484375
 20
-1.07861328125
 30
0.0
 10
155.546875
 20
-1.07861328125
 30
0.0
 10
158.5517578125
 20
-1.70361328125
 30
0.0
 10
161.9091796875
 20
-2.95361328125
 30
0.0
 10
161.9091796875
 20
-2.95361328125
 30
0.0
 10
161.9091796875
 20
-9.52490234375
 30
0.0
 10
161.9091796875
 20
-9.52490234375
 30
0.0
 10
160.7529296875
 20
-8.76318359375
 30
0.0
 10
159.6103515625
 20
-8.12939453125
 30
0.0
 10
158.4814453125
 20
-7.623046875
 30
0.0
 10
157.3525390625
 20
-7.1171875
 30
0.0
 10
156.0244140625
 20
-6.8642578125
 30
0.0
 10
154.4970703125
 20
-6.8642578125
 30
0.0
 10
153.138671875
 20
-6.8642578125
 30
0.0
 10
151.869140625
 20
-7.14990234375
 30
0.0
 10
150.6904296875
 20
-7.72119140625
 30
0.0
 10
149.5107421875
 20
-8.29248046875
 30
0.0
 10
148.5615234375
 20
-9.1083984375
 30
0.0
 10
147.84375
 20
-10.16748046875
 30
0.0
 10
147.1240234375
 20
-11.22705078125
 30
0.0
 10
146.765625
 20
-12.46533203125
 30
0.0
 10
146.765625
 20
-13.8818359375
 30
0.0
 10
146.765625
 20
-15.1318359375
 30
0.0
 10
147.0791015625
 20
-16.27783203125
 30
0.0
 10
147.708984375
 20
-17.3193359375
 30
0.0
 10
148.3369140625
 20
-18.36083984375
 30
0.0
 10
149.2099609375
 20
-19.18798828125
 30
0.0
 10
150.328125
 20
-19.80126953125
 30
0.0
 10
151.4453125
 20
-20.41455078125
 30
0.0
 10
152.7060546875
 20
-20.720703125
 30
0.0
 10
154.109375
 20
-20.720703125
 30
0.0
 10
155.244140625
 20
-20.720703125
 30
0.0
 10
156.31640625
 20
-20.5751953125
 30
0.0
 10
157.3271484375
 20
-20.283203125
 30
0.0
 10
158.337890625
 20
-19.99169921875
 30
0.0
 10
159.1884765625
 20
-19.66748046875
 30
0.0
 10
159.8798828125
 20
-19.31005859375
 30
0.0
 10
160.5703125
 20
-18.953125
 30
0.0
 10
161.2802734375
 20
-18.53076171875
 30
0.0
 10
162.0107421875
 20
-18.04248046875
 30
0.0
 10
162.0107421875
 20
-18.04248046875
 30
0.0
 10
162.0107421875
 20
-24.31005859375
 30
0.0
 10
162.0107421875
 20
-24.31005859375
 30
0.0
  0
HATCH
  5
59
330
3C
100
AcDbEntity
  8
Layer 1
 62
     7
420
 16777215
100
AcDbHatch
 10
0.0
 20
0.0
 30
0.0
210
0.0
220
0.0
230
1.0
  2
SOLID
 70
     1
 71
     0
 91
        1
 92
        1
 93
        1
 72
     4
 94
        3
 73
     0
 74
     1
 95
       80
 96
       76
 40
0.0
 40
0.0
 40
0.0
 40
0.0
 40
1.0
 40
1.0
 40
1.0
 40
2.0
 40
2.0
 40
2.0
 40
3.0
 40
3.0
 40
3.0
 40
4.0
 40
4.0
 40
4.0
 40
5.0
 40
5.0
 40
5.0
 40
6.0
 40
6.0
 40
6.0
 40
7.0
 40
7.0
 40
7.0
 40
8.0
 40
8.0
 40
8.0
 40
9.0
 40
9.0
 40
9.0
 40
10.0
 40
10.0
 40
10.0
 40
11.0
 40
11.0
 40
11.0
 40
12.0
 40
12.0
 40
12.0
 40
13.0
 40
13.0
 40
13.0
 40
14.0
 40
14.0
 40
14.0
 40
15.0
 40
15.0
 40
15.0
 40
16.0
 40
16.0
 40
16.0
 40
17.0
 40
17.0
 40
17.0
 40
18.0
 40
18.0
 40
18.0
 40
19.0
 40
19.0
 40
19.0
 40
20.0
 40
20.0
 40
20.0
 40
21.0
 40
21.0
 40
21.0
 40
22.0
 40
22.0
 40
22.0
 40
23.0
 40
23.0
 40
23.0
 40
24.0
 40
24.0
 40
24.0
 40
25.0
 40
25.0
 40
25.0
 40
25.0
 10
162.0107421875
 20
-24.31005859375
 10
161.044921875
 20
-24.845703125
 10
160.056640625
 20
-25.2744140625
 10
159.0458984375
 20
-25.595703125
 10
158.03515625
 20
-25.9169921875
 10
157.015625
 20
-26.146484375
 10
155.98828125
 20
-26.283203125
 10
154.9609375
 20
-26.419921875
 10
153.896484375
 20
-26.48828125
 10
152.7958984375
 20
-26.48828125
 10
150.7626953125
 20
-26.48828125
 10
148.9404296875
 20
-26.19091796875
 10
147.3291015625
 20
-25.595703125
 10
145.7177734375
 20
-25.00048828125
 10
144.3193359375
 20
-24.12255859375
 10
143.134765625
 20
-22.9619140625
 10
141.9501953125
 20
-21.80126953125
 10
141.0625
 20
-20.44384765625
 10
140.4736328125
 20
-18.890625
 10
139.8837890625
 20
-17.3369140625
 10
139.5888671875
 20
-15.6318359375
 10
139.5888671875
 20
-13.7744140625
 10
139.5888671875
 20
-11.64404296875
 10
139.9365234375
 20
-9.77783203125
 10
140.6328125
 20
-8.1767578125
 10
141.3291015625
 20
-6.57568359375
 10
142.3037109375
 20
-5.24560546875
 10
143.5556640625
 20
-4.185546875
 10
144.80859375
 20
-3.12646484375
 10
146.234375
 20
-2.34375
 10
147.8349609375
 20
-1.83740234375
 10
149.435546875
 20
-1.33154296875
 10
151.1220703125
 20
-1.07861328125
 10
152.896484375
 20
-1.07861328125
 10
155.546875
 20
-1.07861328125
 10
158.5517578125
 20
-1.70361328125
 10
161.9091796875
 20
-2.95361328125
 10
161.9091796875
 20
-2.95361328125
 10
161.9091796875
 20
-9.52490234375
 10
161.9091796875
 20
-9.52490234375
 10
160.7529296875
 20
-8.76318359375
 10
159.6103515625
 20
-8.12939453125
 10
158.4814453125
 20
-7.623046875
 10
157.3525390625
 20
-7.1171875
 10
156.0244140625
 20
-6.8642578125
 10
154.4970703125
 20
-6.8642578125
 10
153.138671875
 20
-6.8642578125
 10
151.869140625
 20
-7.14990234375
 10
150.6904296875
 20
-7.72119140625
 10
149.5107421875
 20
-8.29248046875
 10
148.5615234375
 20
-9.1083984375
 10
147.84375
 20
-10.16748046875
 10
147.1240234375
 20
-11.22705078125
 10
146.765625
 20
-12.46533203125
 10
146.765625
 20
-13.8818359375
 10
146.765625
 20
-15.1318359375
 10
147.0791015625
 20
-16.27783203125
 10
147.708984375
 20
-17.3193359375
 10
148.3369140625
 20
-18.36083984375
 10
149.2099609375
 20
-19.18798828125
 10
150.328125
 20
-19.80126953125
 10
151.4453125
 20
-20.41455078125
 10
152.7060546875
 20
-20.720703125
 10
154.109375
 20
-20.720703125
 10
155.244140625
 20
-20.720703125
 10
156.31640625
 20
-20.5751953125
 10
157.3271484375
 20
-20.283203125
 10
158.337890625
 20
-19.99169921875
 10
159.1884765625
 20
-19.66748046875
 10
159.8798828125
 20
-19.31005859375
 10
160.5703125
 20
-18.953125
 10
161.2802734375
 20
-18.53076171875
 10
162.0107421875
 20
-18.04248046875
 10
162.0107421875
 20
-18.04248046875
 10
162.0107421875
 20
-24.31005859375
 10
162.0107421875
 20
-24.31005859375
 97
        0
 75
     2
 76
     1
 98
        0
  0
SPLINE
  5
5A
330
3C
100
AcDbEntity
  8
Layer 1
370
     0
100
AcDbSpline
210
0.0
220
0.0
230
1.0
 70
    11
 71
     3
 72
    44
 73
    40
 74
     0
 42
0.0000000001
 43
0.0000000001
 40
0.0
 40
0.0
 40
0.0
 40
0.0
 40
1.0
 40
1.0
 40
1.0
 40
2.0
 40
2.0
 40
2.0
 40
3.0
 40
3.0
 40
3.0
 40
4.0
 40
4.0
 40
4.0
 40
5.0
 40
5.0
 40
5.0
 40
6.0
 40
6.0
 40
6.0
 40
7.0
 40
7.0
 40
7.0
 40
8.0
 40
8.0
 40
8.0
 40
9.0
 40
9.0
 40
9.0
 40
10.0
 40
10.0
 40
10.0
 40
11.0
 40
11.0
 40
11.0
 40
12.0
 40
12.0
 40
12.0
 40
13.0
 40
13.0
 40
13.0
 40
13.0
 10
190.0302734375
 20
-13.7744140625
 30
0.0
 10
190.0302734375
 20
-16.08447265625
 30
0.0
 10
189.52734375
 20
-18.208984375
 30
0.0
 10
188.5224609375
 20
-20.1494140625
 30
0.0
 10
187.517578125
 20
-22.08984375
 30
0.0
 10
186.021484375
 20
-23.63134765625
 30
0.0
 10
184.033203125
 20
-24.7744140625
 30
0.0
 10
182.0458984375
 20
-25.9169921875
 30
0.0
 10
179.625
 20
-26.48828125
 30
0.0
 10
176.7734375
 20
-26.48828125
 30
0.0
 10
173.88671875
 20
-26.48828125
 30
0.0
 10
171.4443359375
 20
-25.89306640625
 30
0.0
 10
169.4453125
 20
-24.70263671875
 30
0.0
 10
167.4462890625
 20
-23.5126953125
 30
0.0
 10
165.9609375
 20
-21.94677734375
 30
0.0
 10
164.9892578125
 20
-20.00634765625
 30
0.0
 10
164.017578125
 20
-18.06640625
 30
0.0
 10
163.5322265625
 20
-15.98876953125
 30
0.0
 10
163.5322265625
 20
-13.7744140625
 30
0.0
 10
163.5322265625
 20
-11.548828125
 30
0.0
 10
164.0146484375
 20
-9.46826171875
 30
0.0
 10
164.98046875
 20
-7.53369140625
 30
0.0
 10
165.9462890625
 20
-5.599609375
 30
0.0
 10
167.431640625
 20
-4.0400390625
 30
0.0
 10
169.4365234375
 20
-2.85546875
 30
0.0
 10
171.44140625
 20
-1.6708984375
 30
0.0
 10
173.88671875
 20
-1.07861328125
 30
0.0
 10
176.7734375
 20
-1.07861328125
 30
0.0
 10
178.9296875
 20
-1.07861328125
 30
0.0
 10
180.8525390625
 20
-1.41796875
 30
0.0
 10
182.54296875
 20
-2.0966796875
 30
0.0
 10
184.232421875
 20
-2.77490234375
 30
0.0
 10
185.6220703125
 20
-3.69482421875
 30
0.0
 10
186.7119140625
 20
-4.85546875
 30
0.0
 10
187.80078125
 20
-6.01611328125
 30
0.0
 10
188.626953125
 20
-7.3671875
 30
0.0
 10
189.1884765625
 20
-8.90869140625
 30
0.0
 10
189.75
 20
-10.45068359375
 30
0.0
 10
190.0302734375
 20
-12.072265625
 30
0.0
 10
190.0302734375
 20
-13.7744140625
 30
0.0
  0
SPLINE
  5
5B
330
3C
100
AcDbEntity
  8
Layer 1
370
     0
100
AcDbSpline
210
0.0
220
0.0
230
1.0
 70
    11
 71
     3
 72
    38
 73
    34
 74
     0
 42
0.0000000001
 43
0.0000000001
 40
0.0
 40
0.0
 40
0.0
 40
0.0
 40
1.0
 40
1.0
 40
1.0
 40
2.0
 40
2.0
 40
2.0
 40
3.0
 40
3.0
 40
3.0
 40
4.0
 40
4.0
 40
4.0
 40
5.0
 40
5.0
 40
5.0
 40
6.0
 40
6.0
 40
6.0
 40
7.0
 40
7.0
 40
7.0
 40
8.0
 40
8.0
 40
8.0
 40
9.0
 40
9.0
 40
9.0
 40
10.0
 40
10.0
 40
10.0
 40
11.0
 40
11.0
 40
11.0
 40
11.0
 10
182.8544921875
 20
-13.7744140625
 30
0.0
 10
182.8544921875
 20
-12.84619140625
 30
0.0
 10
182.724609375
 20
-11.998046875
 30
0.0
 10
182.466796875
 20
-11.22998046875
 30
0.0
 10
182.2080078125
 20
-10.46240234375
 30
0.0
 10
181.818359375
 20
-9.7958984375
 30
0.0
 10
181.2958984375
 20
-9.22998046875
 30
0.0
 10
180.7734375
 20
-8.6650390625
 30
0.0
 10
180.13671875
 20
-8.22412109375
 30
0.0
 10
179.3837890625
 20
-7.90869140625
 30
0.0
 10
178.6318359375
 20
-7.59326171875
 30
0.0
 10
177.7607421875
 20
-7.435546875
 30
0.0
 10
176.7734375
 20
-7.435546875
 30
0.0
 10
174.88671875
 20
-7.435546875
 30
0.0
 10
173.404296875
 20
-8.01904296875
 30
0.0
 10
172.326171875
 20
-9.185546875
 30
0.0
 10
171.248046875
 20
-10.3525390625
 30
0.0
 10
170.708984375
 20
-11.8818359375
 30
0.0
 10
170.708984375
 20
-13.7744140625
 30
0.0
 10
170.708984375
 20
-15.66748046875
 30
0.0
 10
171.25
 20
-17.2001953125
 30
0.0
 10
172.333984375
 20
-18.37255859375
 30
0.0
 10
173.41796875
 20
-19.54541015625
 30
0.0
 10
174.8974609375
 20
-20.13134765625
 30
0.0
 10
176.7734375
 20
-20.13134765625
 30
0.0
 10
178.064453125
 20
-20.13134765625
 30
0.0
 10
179.1650390625
 20
-19.86083984375
 30
0.0
 10
180.07421875
 20
-19.31884765625
 30
0.0
 10
180.984375
 20
-18.77734375
 30
0.0
 10
181.6748046875
 20
-18.02734375
 30
0.0
 10
182.146484375
 20
-17.0693359375
 30
0.0
 10
182.6181640625
 20
-16.11083984375
 30
0.0
 10
182.8544921875
 20
-15.0126953125
 30
0.0
 10
182.8544921875
 20
-13.7744140625
 30
0.0
  0
HATCH
  5
5C
330
3C
100
AcDbEntity
  8
Layer 1
 62
     7
420
 16777215
100
AcDbHatch
 10
0.0
 20
0.0
 30
0.0
210
0.0
220
0.0
230
1.0
  2
SOLID
 70
     1
 71
     0
 91
        2
 92
        1
 93
        1
 72
     4
 94
        3
 73
     0
 74
     1
 95
       44
 96
       40
 40
0.0
 40
0.0
 40
0.0
 40
0.0
 40
1.0
 40
1.0
 40
1.0
 40
2.0
 40
2.0
 40
2.0
 40
3.0
 40
3.0
 40
3.0
 40
4.0
 40
4.0
 40
4.0
 40
5.0
 40
5.0
 40
5.0
 40
6.0
 40
6.0
 40
6.0
 40
7.0
 40
7.0
 40
7.0
 40
8.0
 40
8.0
 40
8.0
 40
9.0
 40
9.0
 40
9.0
 40
10.0
 40
10.0
 40
10.0
 40
11.0
 40
11.0
 40
11.0
 40
12.0
 40
12.0
 40
12.0
 40
13.0
 40
13.0
 40
13.0
 40
13.0
 10
190.0302734375
 20
-13.7744140625
 10
190.0302734375
 20
-16.08447265625
 10
189.52734375
 20
-18.208984375
 10
188.5224609375
 20
-20.1494140625
 10
187.517578125
 20
-22.08984375
 10
186.021484375
 20
-23.63134765625
 10
184.033203125
 20
-24.7744140625
 10
182.0458984375
 20
-25.9169921875
 10
179.625
 20
-26.48828125
 10
176.7734375
 20
-26.48828125
 10
173.88671875
 20
-26.48828125
 10
171.4443359375
 20
-25.89306640625
 10
169.4453125
 20
-24.70263671875
 10
167.4462890625
 20
-23.5126953125
 10
165.9609375
 20
-21.94677734375
 10
164.9892578125
 20
-20.00634765625
 10
164.017578125
 20
-18.06640625
 10
163.5322265625
 20
-15.98876953125
 10
163.5322265625
 20
-13.7744140625
 10
163.5322265625
 20
-11.548828125
 10
164.0146484375
 20
-9.46826171875
 10
164.98046875
 20
-7.53369140625
 10
165.9462890625
 20
-5.599609375
 10
167.431640625
 20
-4.0400390625
 10
169.4365234375
 20
-2.85546875
 10
171.44140625
 20
-1.6708984375
 10
173.88671875
 20
-1.07861328125
 10
176.7734375
 20
-1.07861328125
 10
178.9296875
 20
-1.07861328125
 10
180.8525390625
 20
-1.41796875
 10
182.54296875
 20
-2.0966796875
 10
184.232421875
 20
-2.77490234375
 10
185.6220703125
 20
-3.69482421875
 10
186.7119140625
 20
-4.85546875
 10
187.80078125
 20
-6.01611328125
 10
188.626953125
 20
-7.3671875
 10
189.1884765625
 20
-8.90869140625
 10
189.75
 20
-10.45068359375
 10
190.0302734375
 20
-12.072265625
 10
190.0302734375
 20
-13.7744140625
 97
        0
 92
        1
 93
        1
 72
     4
 94
        3
 73
     0
 74
     1
 95
       38
 96
       34
 40
0.0
 40
0.0
 40
0.0
 40
0.0
 40
1.0
 40
1.0
 40
1.0
 40
2.0
 40
2.0
 40
2.0
 40
3.0
 40
3.0
 40
3.0
 40
4.0
 40
4.0
 40
4.0
 40
5.0
 40
5.0
 40
5.0
 40
6.0
 40
6.0
 40
6.0
 40
7.0
 40
7.0
 40
7.0
 40
8.0
 40
8.0
 40
8.0
 40
9.0
 40
9.0
 40
9.0
 40
10.0
 40
10.0
 40
10.0
 40
11.0
 40
11.0
 40
11.0
 40
11.0
 10
182.8544921875
 20
-13.7744140625
 10
182.8544921875
 20
-12.84619140625
 10
182.724609375
 20
-11.998046875
 10
182.466796875
 20
-11.22998046875
 10
182.2080078125
 20
-10.46240234375
 10
181.818359375
 20
-9.7958984375
 10
181.2958984375
 20
-9.22998046875
 10
180.7734375
 20
-8.6650390625
 10
180.13671875
 20
-8.22412109375
 10
179.3837890625
 20
-7.90869140625
 10
178.6318359375
 20
-7.59326171875
 10
177.7607421875
 20
-7.435546875
 10
176.7734375
 20
-7.435546875
 10
174.88671875
 20
-7.435546875
 10
173.404296875
 20
-8.01904296875
 10
172.326171875
 20
-9.185546875
 10
171.248046875
 20
-10.3525390625
 10
170.708984375
 20
-11.8818359375
 10
170.708984375
 20
-13.7744140625
 10
170.708984375
 20
-15.66748046875
 10
171.25
 20
-17.2001953125
 10
172.333984375
 20
-18.37255859375
 10
173.41796875
 20
-19.54541015625
 10
174.8974609375
 20
-20.13134765625
 10
176.7734375
 20
-20.13134765625
 10
178.064453125
 20
-20.13134765625
 10
179.1650390625
 20
-19.86083984375
 10
180.07421875
 20
-19.31884765625
 10
180.984375
 20
-18.77734375
 10
181.6748046875
 20
-18.02734375
 10
182.146484375
 20
-17.0693359375
 10
182.6181640625
 20
-16.11083984375
 10
182.8544921875
 20
-15.0126953125
 10
182.8544921875
 20
-13.7744140625
 97
        0
 75
     2
 76
     1
 98
        0
  0
POLYLINE
  5
5D
330
3C
100
AcDbEntity
  8
Layer 1
370
     0
100
AcDb2dPolyline
 66
     1
 10
0.0
 20
0.0
 30
0.0
  0
VERTEX
  5
5E
330
5D
100
AcDbEntity
  8
Layer 1
370
     0
100
AcDbVertex
100
AcDb2dVertex
 10
210.94140625
 20
-26.1669921875
 30
0.0
  0
VERTEX
  5
5F
330
5D
100
AcDbEntity
  8
Layer 1
370
     0
100
AcDbVertex
100
AcDb2dVertex
 10
193.203125
 20
-26.1669921875
 30
0.0
  0
VERTEX
  5
60
330
5D
100
AcDbEntity
  8
Layer 1
370
     0
100
AcDbVertex
100
AcDb2dVertex
 10
193.203125
 20
-1.41796875
 30
0.0
  0
VERTEX
  5
61
330
5D
100
AcDbEntity
  8
Layer 1
370
     0
100
AcDbVertex
100
AcDb2dVertex
 10
200.244140625
 20
-1.41796875
 30
0.0
  0
VERTEX
  5
62
330
5D
100
AcDbEntity
  8
Layer 1
370
     0
100
AcDbVertex
100
AcDb2dVertex
 10
200.244140625
 20
-20.23876953125
 30
0.0
  0
VERTEX
  5
63
330
5D
100
AcDbEntity
  8
Layer 1
370
     0
100
AcDbVertex
100
AcDb2dVertex
 10
210.94140625
 20
-20.23876953125
 30
0.0
  0
VERTEX
  5
64
330
5D
100
AcDbEntity
  8
Layer 1
370
     0
100
AcDbVertex
100
AcDb2dVertex
 10
210.94140625
 20
-26.1669921875
 30
0.0
  0
SEQEND
  5
65
330
5D
100
AcDbEntity
  8
Layer 1
370
     0
  0
HATCH
  5
66
330
3C
100
AcDbEntity
  8
Layer 1
 62
     7
420
 16777215
100
AcDbHatch
 10
0.0
 20
0.0
 30
0.0
210
0.0
220
0.0
230
1.0
  2
SOLID
 70
     1
 71
     0
 91
        1
 92
        1
 93
        6
 72
     1
 10
210.94140625
 20
-26.1669921875
 11
193.203125
 21
-26.1669921875
 72
     1
 10
193.203125
 20
-26.1669921875
 11
193.203125
 21
-1.41796875
 72
     1
 10
193.203125
 20
-1.41796875
 11
200.244140625
 21
-1.41796875
 72
     1
 10
200.244140625
 20
-1.41796875
 11
200.244140625
 21
-20.23876953125
 72
     1
 10
200.244140625
 20
-20.23876953125
 11
210.94140625
 21
-20.23876953125
 72
     1
 10
210.94140625
 20
-20.23876953125
 11
210.94140625
 21
-26.1669921875
 97
        0
 75
     2
 76
     1
 98
        0
  0
ENDBLK
  5
3F
330
3C
100
AcDbEntity
  8
0
100
AcDbBlockEnd
  0
BLOCK
  5
69
330
67
100
AcDbEntity
  8
0
100
AcDbBlockBegin
  2
block 3
 70
     0
 71
     0
 10
0.0
 20
0.0
 30
0.0
  3
block 3
  1

  0
SPLINE
  5
6B
330
67
100
AcDbEntity
  8
Layer 1
370
     0
100
AcDbSpline
210
0.0
220
0.0
230
1.0
 70
    11
 71
     3
 72
    74
 73
    70
 74
     0
 42
0.0000000001
 43
0.0000000001
 40
0.0
 40
0.0
 40
0.0
 40
0.0
 40
1.0
 40
1.0
 40
1.0
 40
2.0
 40
2.0
 40
2.0
 40
3.0
 40
3.0
 40
3.0
 40
4.0
 40
4.0
 40
4.0
 40
5.0
 40
5.0
 40
5.0
 40
6.0
 40
6.0
 40
6.0
 40
7.0
 40
7.0
 40
7.0
 40
8.0
 40
8.0
 40
8.0
 40
9.0
 40
9.0
 40
9.0
 40
10.0
 40
10.0
 40
10.0
 40
11.0
 40
11.0
 40
11.0
 40
12.0
 40
12.0
 40
12.0
 40
13.0
 40
13.0
 40
13.0
 40
14.0
 40
14.0
 40
14.0
 40
15.0
 40
15.0
 40
15.0
 40
16.0
 40
16.0
 40
16.0
 40
17.0
 40
17.0
 40
17.0
 40
18.0
 40
18.0
 40
18.0
 40
19.0
 40
19.0
 40
19.0
 40
20.0
 40
20.0
 40
20.0
 40
21.0
 40
21.0
 40
21.0
 40
22.0
 40
22.0
 40
22.0
 40
23.0
 40
23.0
 40
23.0
 40
23.0
 10
25.29736328125
 20
-28.97998046875
 30
0.0
 10
28.08642578125
 20
-28.97998046875
 30
0.0
 10
30.77294921875
 20
-29.67724609375
 30
0.0
 10
33.35693359375
 20
-31.07177734375
 30
0.0
 10
33.35693359375
 20
-31.07177734375
 30
0.0
 10
33.35693359375
 20
-35.994140625
 30
0.0
 10
33.35693359375
 20
-35.994140625
 30
0.0
 10
30.39013671875
 20
-34.203125
 30
0.0
 10
27.75830078125
 20
-33.30712890625
 30
0.0
 10
25.46142578125
 20
-33.30712890625
 30
0.0
 10
24.06689453125
 20
-33.30712890625
 30
0.0
 10
22.9765625
 20
-33.5771484375
 30
0.0
 10
22.1904296875
 20
-34.1171875
 30
0.0
 10
21.404296875
 20
-34.6572265625
 30
0.0
 10
21.01123046875
 20
-35.37890625
 30
0.0
 10
21.01123046875
 20
-36.28125
 30
0.0
 10
21.01123046875
 20
-37.361328125
 30
0.0
 10
21.74267578125
 20
-38.359375
 30
0.0
 10
23.20556640625
 20
-39.275390625
 30
0.0
 10
23.61572265625
 20
-39.548828125
 30
0.0
 10
25.19482421875
 20
-40.314453125
 30
0.0
 10
27.94287109375
 20
-41.572265625
 30
0.0
 10
30.29443359375
 20
-42.6796875
 30
0.0
 10
31.98974609375
 20
-43.91015625
 30
0.0
 10
33.02880859375
 20
-45.263671875
 30
0.0
 10
34.06787109375
 20
-46.6171875
 30
0.0
 10
34.58740234375
 20
-48.244140625
 30
0.0
 10
34.58740234375
 20
-50.14453125
 30
0.0
 10
34.58740234375
 20
-52.60546875
 30
0.0
 10
33.7021484375
 20
-54.5908203125
 30
0.0
 10
31.931640625
 20
-56.1015625
 30
0.0
 10
30.1611328125
 20
-57.6123046875
 30
0.0
 10
27.86767578125
 20
-58.3671875
 30
0.0
 10
25.05126953125
 20
-58.3671875
 30
0.0
 10
23.21923828125
 20
-58.3671875
 30
0.0
 10
21.6435546875
 20
-58.166015625
 30
0.0
 10
20.32421875
 20
-57.7626953125
 30
0.0
 10
19.0048828125
 20
-57.359375
 30
0.0
 10
17.52490234375
 20
-56.666015625
 30
0.0
 10
15.88427734375
 20
-55.681640625
 30
0.0
 10
15.88427734375
 20
-55.681640625
 30
0.0
 10
15.88427734375
 20
-50.2265625
 30
0.0
 10
15.88427734375
 20
-50.2265625
 30
0.0
 10
18.94677734375
 20
-52.76953125
 30
0.0
 10
21.83154296875
 20
-54.041015625
 30
0.0
 10
24.53857421875
 20
-54.041015625
 30
0.0
 10
25.89208984375
 20
-54.041015625
 30
0.0
 10
26.98583984375
 20
-53.74609375
 30
0.0
 10
27.81982421875
 20
-53.158203125
 30
0.0
 10
28.65380859375
 20
-52.5703125
 30
0.0
 10
29.07080078125
 20
-51.791015625
 30
0.0
 10
29.07080078125
 20
-50.8203125
 30
0.0
 10
29.07080078125
 20
-49.494140625
 30
0.0
 10
28.34619140625
 20
-48.4140625
 30
0.0
 10
26.89697265625
 20
-47.580078125
 30
0.0
 10
25.69384765625
 20
-46.923828125
 30
0.0
 10
24.14208984375
 20
-46.138671875
 30
0.0
 10
22.24169921875
 20
-45.22265625
 30
0.0
 10
19.98583984375
 20
-44.197265625
 30
0.0
 10
18.30078125
 20
-43.0
 30
0.0
 10
17.1865234375
 20
-41.6328125
 30
0.0
 10
16.072265625
 20
-40.265625
 30
0.0
 10
15.51513671875
 20
-38.6796875
 30
0.0
 10
15.51513671875
 20
-36.875
 30
0.0
 10
15.51513671875
 20
-34.46875
 30
0.0
 10
16.41064453125
 20
-32.5517578125
 30
0.0
 10
18.20166015625
 20
-31.123046875
 30
0.0
 10
19.99267578125
 20
-29.6943359375
 30
0.0
 10
22.35791015625
 20
-28.97998046875
 30
0.0
 10
25.29736328125
 20
-28.97998046875
 30
0.0
  0
HATCH
  5
6C
330
67
100
AcDbEntity
  8
Layer 1
 62
     7
420
 16777215
100
AcDbHatch
 10
0.0
 20
0.0
 30
0.0
210
0.0
220
0.0
230
1.0
  2
SOLID
 70
     1
 71
     0
 91
        1
 92
        1
 93
        1
 72
     4
 94
        3
 73
     0
 74
     1
 95
       74
 96
       70
 40
0.0
 40
0.0
 40
0.0
 40
0.0
 40
1.0
 40
1.0
 40
1.0
 40
2.0
 40
2.0
 40
2.0
 40
3.0
 40
3.0
 40
3.0
 40
4.0
 40
4.0
 40
4.0
 40
5.0
 40
5.0
 40
5.0
 40
6.0
 40
6.0
 40
6.0
 40
7.0
 40
7.0
 40
7.0
 40
8.0
 40
8.0
 40
8.0
 40
9.0
 40
9.0
 40
9.0
 40
10.0
 40
10.0
 40
10.0
 40
11.0
 40
11.0
 40
11.0
 40
12.0
 40
12.0
 40
12.0
 40
13.0
 40
13.0
 40
13.0
 40
14.0
 40
14.0
 40
14.0
 40
15.0
 40
15.0
 40
15.0
 40
16.0
 40
16.0
 40
16.0
 40
17.0
 40
17.0
 40
17.0
 40
18.0
 40
18.0
 40
18.0
 40
19.0
 40
19.0
 40
19.0
 40
20.0
 40
20.0
 40
20.0
 40
21.0
 40
21.0
 40
21.0
 40
22.0
 40
22.0
 40
22.0
 40
23.0
 40
23.0
 40
23.0
 40
23.0
 10
25.29736328125
 20
-28.97998046875
 10
28.08642578125
 20
-28.97998046875
 10
30.77294921875
 20
-29.67724609375
 10
33.35693359375
 20
-31.07177734375
 10
33.35693359375
 20
-31.07177734375
 10
33.35693359375
 20
-35.994140625
 10
33.35693359375
 20
-35.994140625
 10
30.39013671875
 20
-34.203125
 10
27.75830078125
 20
-33.30712890625
 10
25.46142578125
 20
-33.30712890625
 10
24.06689453125
 20
-33.30712890625
 10
22.9765625
 20
-33.5771484375
 10
22.1904296875
 20
-34.1171875
 10
21.404296875
 20
-34.6572265625
 10
21.01123046875
 20
-35.37890625
 10
21.01123046875
 20
-36.28125
 10
21.01123046875
 20
-37.361328125
 10
21.74267578125
 20
-38.359375
 10
23.20556640625
 20
-39.275390625
 10
23.61572265625
 20
-39.548828125
 10
25.19482421875
 20
-40.314453125
 10
27.94287109375
 20
-41.572265625
 10
30.29443359375
 20
-42.6796875
 10
31.98974609375
 20
-43.91015625
 10
33.02880859375
 20
-45.263671875
 10
34.06787109375
 20
-46.6171875
 10
34.58740234375
 20
-48.244140625
 10
34.58740234375
 20
-50.14453125
 10
34.58740234375
 20
-52.60546875
 10
33.7021484375
 20
-54.5908203125
 10
31.931640625
 20
-56.1015625
 10
30.1611328125
 20
-57.6123046875
 10
27.86767578125
 20
-58.3671875
 10
25.05126953125
 20
-58.3671875
 10
23.21923828125
 20
-58.3671875
 10
21.6435546875
 20
-58.166015625
 10
20.32421875
 20
-57.7626953125
 10
19.0048828125
 20
-57.359375
 10
17.52490234375
 20
-56.666015625
 10
15.88427734375
 20
-55.681640625
 10
15.88427734375
 20
-55.681640625
 10
15.88427734375
 20
-50.2265625
 10
15.88427734375
 20
-50.2265625
 10
18.94677734375
 20
-52.76953125
 10
21.83154296875
 20
-54.041015625
 10
24.53857421875
 20
-54.041015625
 10
25.89208984375
 20
-54.041015625
 10
26.98583984375
 20
-53.74609375
 10
27.81982421875
 20
-53.158203125
 10
28.65380859375
 20
-52.5703125
 10
29.07080078125
 20
-51.791015625
 10
29.07080078125
 20
-50.8203125
 10
29.07080078125
 20
-49.494140625
 10
28.34619140625
 20
-48.4140625
 10
26.89697265625
 20
-47.580078125
 10
25.69384765625
 20
-46.923828125
 10
24.14208984375
 20
-46.138671875
 10
22.24169921875
 20
-45.22265625
 10
19.98583984375
 20
-44.197265625
 10
18.30078125
 20
-43.0
 10
17.1865234375
 20
-41.6328125
 10
16.072265625
 20
-40.265625
 10
15.51513671875
 20
-38.6796875
 10
15.51513671875
 20
-36.875
 10
15.51513671875
 20
-34.46875
 10
16.41064453125
 20
-32.5517578125
 10
18.20166015625
 20
-31.123046875
 10
19.99267578125
 20
-29.6943359375
 10
22.35791015625
 20
-28.97998046875
 10
25.29736328125
 20
-28.97998046875
 97
        0
 75
     2
 76
     1
 98
        0
  0
SPLINE
  5
6D
330
67
100
AcDbEntity
  8
Layer 1
370
     0
100
AcDbSpline
210
0.0
220
0.0
230
1.0
 70
    11
 71
     3
 72
    59
 73
    55
 74
     0
 42
0.0000000001
 43
0.0000000001
 40
0.0
 40
0.0
 40
0.0
 40
0.0
 40
1.0
 40
1.0
 40
1.0
 40
2.0
 40
2.0
 40
2.0
 40
3.0
 40
3.0
 40
3.0
 40
4.0
 40
4.0
 40
4.0
 40
5.0
 40
5.0
 40
5.0
 40
6.0
 40
6.0
 40
6.0
 40
7.0
 40
7.0
 40
7.0
 40
8.0
 40
8.0
 40
8.0
 40
9.0
 40
9.0
 40
9.0
 40
10.0
 40
10.0
 40
10.0
 40
11.0
 40
11.0
 40
11.0
 40
12.0
 40
12.0
 40
12.0
 40
13.0
 40
13.0
 40
13.0
 40
14.0
 40
14.0
 40
14.0
 40
15.0
 40
15.0
 40
15.0
 40
16.0
 40
16.0
 40
16.0
 40
17.0
 40
17.0
 40
17.0
 40
18.0
 40
18.0
 40
18.0
 40
18.0
 10
53.53857421875
 20
-28.97998046875
 30
0.0
 10
56.42333984375
 20
-28.97998046875
 30
0.0
 10
59.05859375
 20
-29.619140625
 30
0.0
 10
61.4443359375
 20
-30.8974609375
 30
0.0
 10
63.830078125
 20
-32.17578125
 30
0.0
 10
65.703125
 20
-33.94970703125
 30
0.0
 10
67.0634765625
 20
-36.21875
 30
0.0
 10
68.423828125
 20
-38.48828125
 30
0.0
 10
69.10400390625
 20
-40.962890625
 30
0.0
 10
69.10400390625
 20
-43.642578125
 30
0.0
 10
69.10400390625
 20
-45.81640625
 30
0.0
 10
68.642578125
 20
-47.880859375
 30
0.0
 10
67.7197265625
 20
-49.8359375
 30
0.0
 10
66.796875
 20
-51.791015625
 30
0.0
 10
65.4912109375
 20
-53.458984375
 30
0.0
 10
63.802734375
 20
-54.83984375
 30
0.0
 10
62.1142578125
 20
-56.220703125
 30
0.0
 10
60.20361328125
 20
-57.177734375
 30
0.0
 10
58.07080078125
 20
-57.7109375
 30
0.0
 10
58.07080078125
 20
-57.7109375
 30
0.0
 10
58.02978515625
 20
-57.998046875
 30
0.0
 10
58.02978515625
 20
-57.998046875
 30
0.0
 10
61.09228515625
 20
-59.447265625
 30
0.0
 10
63.81982421875
 20
-60.171875
 30
0.0
 10
66.21240234375
 20
-60.171875
 30
0.0
 10
67.10107421875
 20
-60.171875
 30
0.0
 10
67.92822265625
 20
-60.0625
 30
0.0
 10
68.69384765625
 20
-59.84375
 30
0.0
 10
68.69384765625
 20
-59.84375
 30
0.0
 10
68.85791015625
 20
-60.08984375
 30
0.0
 10
68.85791015625
 20
-60.08984375
 30
0.0
 10
68.85791015625
 20
-60.08984375
 30
0.0
 10
64.24365234375
 20
-64.25390625
 30
0.0
 10
64.24365234375
 20
-64.25390625
 30
0.0
 10
59.59521484375
 20
-63.953125
 30
0.0
 10
54.61181640625
 20
-61.853515625
 30
0.0
 10
49.29345703125
 20
-57.95703125
 30
0.0
 10
47.05126953125
 20
-57.51953125
 30
0.0
 10
45.017578125
 20
-56.603515625
 30
0.0
 10
43.1923828125
 20
-55.208984375
 30
0.0
 10
41.3671875
 20
-53.814453125
 30
0.0
 10
39.958984375
 20
-52.11328125
 30
0.0
 10
38.9677734375
 20
-50.103515625
 30
0.0
 10
37.9765625
 20
-48.09375
 30
0.0
 10
37.48095703125
 20
-45.98046875
 30
0.0
 10
37.48095703125
 20
-43.765625
 30
0.0
 10
37.48095703125
 20
-41.0859375
 30
0.0
 10
38.17138671875
 20
-38.578125
 30
0.0
 10
39.55224609375
 20
-36.240234375
 30
0.0
 10
40.93310546875
 20
-33.90185546875
 30
0.0
 10
42.82666015625
 20
-32.107421875
 30
0.0
 10
45.23291015625
 20
-30.8564453125
 30
0.0
 10
47.63916015625
 20
-29.60546875
 30
0.0
 10
50.40771484375
 20
-28.97998046875
 30
0.0
 10
53.53857421875
 20
-28.97998046875
 30
0.0
  0
SPLINE
  5
6E
330
67
100
AcDbEntity
  8
Layer 1
370
     0
100
AcDbSpline
210
0.0
220
0.0
230
1.0
 70
    11
 71
     3
 72
    35
 73
    31
 74
     0
 42
0.0000000001
 43
0.0000000001
 40
0.0
 40
0.0
 40
0.0
 40
0.0
 40
1.0
 40
1.0
 40
1.0
 40
2.0
 40
2.0
 40
2.0
 40
3.0
 40
3.0
 40
3.0
 40
4.0
 40
4.0
 40
4.0
 40
5.0
 40
5.0
 40
5.0
 40
6.0
 40
6.0
 40
6.0
 40
7.0
 40
7.0
 40
7.0
 40
8.0
 40
8.0
 40
8.0
 40
9.0
 40
9.0
 40
9.0
 40
10.0
 40
10.0
 40
10.0
 40
10.0
 10
43.20263671875
 20
-43.724609375
 30
0.0
 10
43.20263671875
 20
-46.650390625
 30
0.0
 10
44.13916015625
 20
-49.0263671875
 30
0.0
 10
46.01220703125
 20
-50.8515625
 30
0.0
 10
47.88525390625
 20
-52.6767578125
 30
0.0
 10
50.34619140625
 20
-53.58984375
 30
0.0
 10
53.39501953125
 20
-53.58984375
 30
0.0
 10
55.28173828125
 20
-53.58984375
 30
0.0
 10
56.994140625
 20
-53.1689453125
 30
0.0
 10
58.5322265625
 20
-52.328125
 30
0.0
 10
60.0703125
 20
-51.4873046875
 30
0.0
 10
61.2666015625
 20
-50.314453125
 30
0.0
 10
62.12109375
 20
-48.810546875
 30
0.0
 10
62.9755859375
 20
-47.306640625
 30
0.0
 10
63.40283203125
 20
-45.625
 30
0.0
 10
63.40283203125
 20
-43.765625
 30
0.0
 10
63.40283203125
 20
-41.8515625
 30
0.0
 10
62.97900390625
 20
-40.12890625
 30
0.0
 10
62.13134765625
 20
-38.59765625
 30
0.0
 10
61.28369140625
 20
-37.06640625
 30
0.0
 10
60.0908203125
 20
-35.876953125
 30
0.0
 10
58.552734375
 20
-35.029296875
 30
0.0
 10
57.0146484375
 20
-34.181640625
 30
0.0
 10
55.29541015625
 20
-33.75830078125
 30
0.0
 10
53.39501953125
 20
-33.75830078125
 30
0.0
 10
50.34619140625
 20
-33.75830078125
 30
0.0
 10
47.88525390625
 20
-34.6708984375
 30
0.0
 10
46.01220703125
 20
-36.49609375
 30
0.0
 10
44.13916015625
 20
-38.3212890625
 30
0.0
 10
43.20263671875
 20
-40.73046875
 30
0.0
 10
43.20263671875
 20
-43.724609375
 30
0.0
  0
HATCH
  5
6F
330
67
100
AcDbEntity
  8
Layer 1
 62
     7
420
 16777215
100
AcDbHatch
 10
0.0
 20
0.0
 30
0.0
210
0.0
220
0.0
230
1.0
  2
SOLID
 70
     1
 71
     0
 91
        2
 92
        1
 93
        1
 72
     4
 94
        3
 73
     0
 74
     1
 95
       59
 96
       55
 40
0.0
 40
0.0
 40
0.0
 40
0.0
 40
1.0
 40
1.0
 40
1.0
 40
2.0
 40
2.0
 40
2.0
 40
3.0
 40
3.0
 40
3.0
 40
4.0
 40
4.0
 40
4.0
 40
5.0
 40
5.0
 40
5.0
 40
6.0
 40
6.0
 40
6.0
 40
7.0
 40
7.0
 40
7.0
 40
8.0
 40
8.0
 40
8.0
 40
9.0
 40
9.0
 40
9.0
 40
10.0
 40
10.0
 40
10.0
 40
11.0
 40
11.0
 40
11.0
 40
12.0
 40
12.0
 40
12.0
 40
13.0
 40
13.0
 40
13.0
 40
14.0
 40
14.0
 40
14.0
 40
15.0
 40
15.0
 40
15.0
 40
16.0
 40
16.0
 40
16.0
 40
17.0
 40
17.0
 40
17.0
 40
18.0
 40
18.0
 40
18.0
 40
18.0
 10
53.53857421875
 20
-28.97998046875
 10
56.42333984375
 20
-28.97998046875
 10
59.05859375
 20
-29.619140625
 10
61.4443359375
 20
-30.8974609375
 10
63.830078125
 20
-32.17578125
 10
65.703125
 20
-33.94970703125
 10
67.0634765625
 20
-36.21875
 10
68.423828125
 20
-38.48828125
 10
69.10400390625
 20
-40.962890625
 10
69.10400390625
 20
-43.642578125
 10
69.10400390625
 20
-45.81640625
 10
68.642578125
 20
-47.880859375
 10
67.7197265625
 20
-49.8359375
 10
66.796875
 20
-51.791015625
 10
65.4912109375
 20
-53.458984375
 10
63.802734375
 20
-54.83984375
 10
62.1142578125
 20
-56.220703125
 10
60.20361328125
 20
-57.177734375
 10
58.07080078125
 20
-57.7109375
 10
58.07080078125
 20
-57.7109375
 10
58.02978515625
 20
-57.998046875
 10
58.02978515625
 20
-57.998046875
 10
61.09228515625
 20
-59.447265625
 10
63.81982421875
 20
-60.171875
 10
66.21240234375
 20
-60.171875
 10
67.10107421875
 20
-60.171875
 10
67.92822265625
 20
-60.0625
 10
68.69384765625
 20
-59.84375
 10
68.69384765625
 20
-59.84375
 10
68.85791015625
 20
-60.08984375
 10
68.85791015625
 20
-60.08984375
 10
68.85791015625
 20
-60.08984375
 10
64.24365234375
 20
-64.25390625
 10
64.24365234375
 20
-64.25390625
 10
59.59521484375
 20
-63.953125
 10
54.61181640625
 20
-61.853515625
 10
49.29345703125
 20
-57.95703125
 10
47.05126953125
 20
-57.51953125
 10
45.017578125
 20
-56.603515625
 10
43.1923828125
 20
-55.208984375
 10
41.3671875
 20
-53.814453125
 10
39.958984375
 20
-52.11328125
 10
38.9677734375
 20
-50.103515625
 10
37.9765625
 20
-48.09375
 10
37.48095703125
 20
-45.98046875
 10
37.48095703125
 20
-43.765625
 10
37.48095703125
 20
-41.0859375
 10
38.17138671875
 20
-38.578125
 10
39.55224609375
 20
-36.240234375
 10
40.93310546875
 20
-33.90185546875
 10
42.82666015625
 20
-32.107421875
 10
45.23291015625
 20
-30.8564453125
 10
47.63916015625
 20
-29.60546875
 10
50.40771484375
 20
-28.97998046875
 10
53.53857421875
 20
-28.97998046875
 97
        0
 92
        1
 93
        1
 72
     4
 94
        3
 73
     0
 74
     1
 95
       35
 96
       31
 40
0.0
 40
0.0
 40
0.0
 40
0.0
 40
1.0
 40
1.0
 40
1.0
 40
2.0
 40
2.0
 40
2.0
 40
3.0
 40
3.0
 40
3.0
 40
4.0
 40
4.0
 40
4.0
 40
5.0
 40
5.0
 40
5.0
 40
6.0
 40
6.0
 40
6.0
 40
7.0
 40
7.0
 40
7.0
 40
8.0
 40
8.0
 40
8.0
 40
9.0
 40
9.0
 40
9.0
 40
10.0
 40
10.0
 40
10.0
 40
10.0
 10
43.20263671875
 20
-43.724609375
 10
43.20263671875
 20
-46.650390625
 10
44.13916015625
 20
-49.0263671875
 10
46.01220703125
 20
-50.8515625
 10
47.88525390625
 20
-52.6767578125
 10
50.34619140625
 20
-53.58984375
 10
53.39501953125
 20
-53.58984375
 10
55.28173828125
 20
-53.58984375
 10
56.994140625
 20
-53.1689453125
 10
58.5322265625
 20
-52.328125
 10
60.0703125
 20
-51.4873046875
 10
61.2666015625
 20
-50.314453125
 10
62.12109375
 20
-48.810546875
 10
62.9755859375
 20
-47.306640625
 10
63.40283203125
 20
-45.625
 10
63.40283203125
 20
-43.765625
 10
63.40283203125
 20
-41.8515625
 10
62.97900390625
 20
-40.12890625
 10
62.13134765625
 20
-38.59765625
 10
61.28369140625
 20
-37.06640625
 10
60.0908203125
 20
-35.876953125
 10
58.552734375
 20
-35.029296875
 10
57.0146484375
 20
-34.181640625
 10
55.29541015625
 20
-33.75830078125
 10
53.39501953125
 20
-33.75830078125
 10
50.34619140625
 20
-33.75830078125
 10
47.88525390625
 20
-34.6708984375
 10
46.01220703125
 20
-36.49609375
 10
44.13916015625
 20
-38.3212890625
 10
43.20263671875
 20
-40.73046875
 10
43.20263671875
 20
-43.724609375
 97
        0
 75
     2
 76
     1
 98
        0
  0
SPLINE
  5
70
330
67
100
AcDbEntity
  8
Layer 1
370
     0
100
AcDbSpline
210
0.0
220
0.0
230
1.0
 70
    11
 71
     3
 72
    56
 73
    52
 74
     0
 42
0.0000000001
 43
0.0000000001
 40
0.0
 40
0.0
 40
0.0
 40
0.0
 40
1.0
 40
1.0
 40
1.0
 40
2.0
 40
2.0
 40
2.0
 40
3.0
 40
3.0
 40
3.0
 40
4.0
 40
4.0
 40
4.0
 40
5.0
 40
5.0
 40
5.0
 40
6.0
 40
6.0
 40
6.0
 40
7.0
 40
7.0
 40
7.0
 40
8.0
 40
8.0
 40
8.0
 40
9.0
 40
9.0
 40
9.0
 40
10.0
 40
10.0
 40
10.0
 40
11.0
 40
11.0
 40
11.0
 40
12.0
 40
12.0
 40
12.0
 40
13.0
 40
13.0
 40
13.0
 40
14.0
 40
14.0
 40
14.0
 40
15.0
 40
15.0
 40
15.0
 40
16.0
 40
16.0
 40
16.0
 40
17.0
 40
17.0
 40
17.0
 40
17.0
 10
78.826171875
 20
-29.34912109375
 30
0.0
 10
78.826171875
 20
-29.34912109375
 30
0.0
 10
78.826171875
 20
-46.021484375
 30
0.0
 10
78.826171875
 20
-46.021484375
 30
0.0
 10
78.826171875
 20
-47.73046875
 30
0.0
 10
79.08251953125
 20
-49.091796875
 30
0.0
 10
79.59521484375
 20
-50.103515625
 30
0.0
 10
80.10791015625
 20
-51.115234375
 30
0.0
 10
80.9453125
 20
-51.94921875
 30
0.0
 10
82.107421875
 20
-52.60546875
 30
0.0
 10
83.26953125
 20
-53.26171875
 30
0.0
 10
84.623046875
 20
-53.58984375
 30
0.0
 10
86.16796875
 20
-53.58984375
 30
0.0
 10
87.86328125
 20
-53.58984375
 30
0.0
 10
89.30224609375
 20
-53.2783203125
 30
0.0
 10
90.48486328125
 20
-52.65625
 30
0.0
 10
91.66748046875
 20
-52.0341796875
 30
0.0
 10
92.5322265625
 20
-51.1865234375
 30
0.0
 10
93.0791015625
 20
-50.11328125
 30
0.0
 10
93.6259765625
 20
-49.0400390625
 30
0.0
 10
93.8994140625
 20
-47.552734375
 30
0.0
 10
93.8994140625
 20
-45.65234375
 30
0.0
 10
93.8994140625
 20
-45.65234375
 30
0.0
 10
93.8994140625
 20
-29.34912109375
 30
0.0
 10
93.8994140625
 20
-29.34912109375
 30
0.0
 10
93.8994140625
 20
-29.34912109375
 30
0.0
 10
99.4365234375
 20
-29.34912109375
 30
0.0
 10
99.4365234375
 20
-29.34912109375
 30
0.0
 10
99.4365234375
 20
-29.34912109375
 30
0.0
 10
99.4365234375
 20
-46.37109375
 30
0.0
 10
99.4365234375
 20
-46.37109375
 30
0.0
 10
99.4365234375
 20
-50.2265625
 30
0.0
 10
98.28125
 20
-53.189453125
 30
0.0
 10
95.970703125
 20
-55.2607421875
 30
0.0
 10
93.66015625
 20
-57.33203125
 30
0.0
 10
90.392578125
 20
-58.3671875
 30
0.0
 10
86.16796875
 20
-58.3671875
 30
0.0
 10
83.515625
 20
-58.3671875
 30
0.0
 10
81.21533203125
 20
-57.896484375
 30
0.0
 10
79.26708984375
 20
-56.953125
 30
0.0
 10
77.31884765625
 20
-56.009765625
 30
0.0
 10
75.83203125
 20
-54.6455078125
 30
0.0
 10
74.806640625
 20
-52.861328125
 30
0.0
 10
73.78125
 20
-51.0771484375
 30
0.0
 10
73.2685546875
 20
-48.982421875
 30
0.0
 10
73.2685546875
 20
-46.576171875
 30
0.0
 10
73.2685546875
 20
-46.576171875
 30
0.0
 10
73.2685546875
 20
-29.34912109375
 30
0.0
 10
73.2685546875
 20
-29.34912109375
 30
0.0
 10
73.2685546875
 20
-29.34912109375
 30
0.0
 10
78.826171875
 20
-29.34912109375
 30
0.0
 10
78.826171875
 20
-29.34912109375
 30
0.0
  0
HATCH
  5
71
330
67
100
AcDbEntity
  8
Layer 1
 62
     7
420
 16777215
100
AcDbHatch
 10
0.0
 20
0.0
 30
0.0
210
0.0
220
0.0
230
1.0
  2
SOLID
 70
     1
 71
     0
 91
        1
 92
        1
 93
        1
 72
     4
 94
        3
 73
     0
 74
     1
 95
       56
 96
       52
 40
0.0
 40
0.0
 40
0.0
 40
0.0
 40
1.0
 40
1.0
 40
1.0
 40
2.0
 40
2.0
 40
2.0
 40
3.0
 40
3.0
 40
3.0
 40
4.0
 40
4.0
 40
4.0
 40
5.0
 40
5.0
 40
5.0
 40
6.0
 40
6.0
 40
6.0
 40
7.0
 40
7.0
 40
7.0
 40
8.0
 40
8.0
 40
8.0
 40
9.0
 40
9.0
 40
9.0
 40
10.0
 40
10.0
 40
10.0
 40
11.0
 40
11.0
 40
11.0
 40
12.0
 40
12.0
 40
12.0
 40
13.0
 40
13.0
 40
13.0
 40
14.0
 40
14.0
 40
14.0
 40
15.0
 40
15.0
 40
15.0
 40
16.0
 40
16.0
 40
16.0
 40
17.0
 40
17.0
 40
17.0
 40
17.0
 10
78.826171875
 20
-29.34912109375
 10
78.826171875
 20
-29.34912109375
 10
78.826171875
 20
-46.021484375
 10
78.826171875
 20
-46.021484375
 10
78.826171875
 20
-47.73046875
 10
79.08251953125
 20
-49.091796875
 10
79.59521484375
 20
-50.103515625
 10
80.10791015625
 20
-51.115234375
 10
80.9453125
 20
-51.94921875
 10
82.107421875
 20
-52.60546875
 10
83.26953125
 20
-53.26171875
 10
84.623046875
 20
-53.58984375
 10
86.16796875
 20
-53.58984375
 10
87.86328125
 20
-53.58984375
 10
89.30224609375
 20
-53.2783203125
 10
90.48486328125
 20
-52.65625
 10
91.66748046875
 20
-52.0341796875
 10
92.5322265625
 20
-51.1865234375
 10
93.0791015625
 20
-50.11328125
 10
93.6259765625
 20
-49.0400390625
 10
93.8994140625
 20
-47.552734375
 10
93.8994140625
 20
-45.65234375
 10
93.8994140625
 20
-45.65234375
 10
93.8994140625
 20
-29.34912109375
 10
93.8994140625
 20
-29.34912109375
 10
93.8994140625
 20
-29.34912109375
 10
99.4365234375
 20
-29.34912109375
 10
99.4365234375
 20
-29.34912109375
 10
99.4365234375
 20
-29.34912109375
 10
99.4365234375
 20
-46.37109375
 10
99.4365234375
 20
-46.37109375
 10
99.4365234375
 20
-50.2265625
 10
98.28125
 20
-53.189453125
 10
95.970703125
 20
-55.2607421875
 10
93.66015625
 20
-57.33203125
 10
90.392578125
 20
-58.3671875
 10
86.16796875
 20
-58.3671875
 10
83.515625
 20
-58.3671875
 10
81.21533203125
 20
-57.896484375
 10
79.26708984375
 20
-56.953125
 10
77.31884765625
 20
-56.009765625
 10
75.83203125
 20
-54.6455078125
 10
74.806640625
 20
-52.861328125
 10
73.78125
 20
-51.0771484375
 10
73.2685546875
 20
-48.982421875
 10
73.2685546875
 20
-46.576171875
 10
73.2685546875
 20
-46.576171875
 10
73.2685546875
 20
-29.34912109375
 10
73.2685546875
 20
-29.34912109375
 10
73.2685546875
 20
-29.34912109375
 10
78.826171875
 20
-29.34912109375
 10
78.826171875
 20
-29.34912109375
 97
        0
 75
     2
 76
     1
 98
        0
  0
POLYLINE
  5
72
330
67
100
AcDbEntity
  8
Layer 1
370
     0
100
AcDb2dPolyline
 66
     1
 10
0.0
 20
0.0
 30
0.0
  0
VERTEX
  5
73
330
72
100
AcDbEntity
  8
Layer 1
370
     0
100
AcDbVertex
100
AcDb2dVertex
 10
118.859375
 20
-29.34912109375
 30
0.0
  0
VERTEX
  5
74
330
72
100
AcDbEntity
  8
Layer 1
370
     0
100
AcDbVertex
100
AcDb2dVertex
 10
131.51171875
 20
-57.998046875
 30
0.0
  0
VERTEX
  5
75
330
72
100
AcDbEntity
  8
Layer 1
370
     0
100
AcDbVertex
100
AcDb2dVertex
 10
125.66796875
 20
-57.998046875
 30
0.0
  0
VERTEX
  5
76
330
72
100
AcDbEntity
  8
Layer 1
370
     0
100
AcDbVertex
100
AcDb2dVertex
 10
122.693359375
 20
-51.025390625
 30
0.0
  0
VERTEX
  5
77
330
72
100
AcDbEntity
  8
Layer 1
370
     0
100
AcDbVertex
100
AcDb2dVertex
 10
109.958984375
 20
-51.025390625
 30
0.0
  0
VERTEX
  5
78
330
72
100
AcDbEntity
  8
Layer 1
370
     0
100
AcDbVertex
100
AcDb2dVertex
 10
107.1904296875
 20
-57.998046875
 30
0.0
  0
VERTEX
  5
79
330
72
100
AcDbEntity
  8
Layer 1
370
     0
100
AcDbVertex
100
AcDb2dVertex
 10
101.38671875
 20
-57.998046875
 30
0.0
  0
VERTEX
  5
7A
330
72
100
AcDbEntity
  8
Layer 1
370
     0
100
AcDbVertex
100
AcDb2dVertex
 10
113.19921875
 20
-29.34912109375
 30
0.0
  0
VERTEX
  5
7B
330
72
100
AcDbEntity
  8
Layer 1
370
     0
100
AcDbVertex
100
AcDb2dVertex
 10
118.859375
 20
-29.34912109375
 30
0.0
  0
SEQEND
  5
7C
330
72
100
AcDbEntity
  8
Layer 1
370
     0
  0
POLYLINE
  5
7D
330
67
100
AcDbEntity
  8
Layer 1
370
     0
100
AcDb2dPolyline
 66
     1
 10
0.0
 20
0.0
 30
0.0
  0
VERTEX
  5
7E
330
7D
100
AcDbEntity
  8
Layer 1
370
     0
100
AcDbVertex
100
AcDb2dVertex
 10
111.640625
 20
-46.822265625
 30
0.0
  0
VERTEX
  5
7F
330
7D
100
AcDbEntity
  8
Layer 1
370
     0
100
AcDbVertex
100
AcDb2dVertex
 10
120.888671875
 20
-46.822265625
 30
0.0
  0
VERTEX
  5
80
330
7D
100
AcDbEntity
  8
Layer 1
370
     0
100
AcDbVertex
100
AcDb2dVertex
 10
116.048828125
 20
-35.48046875
 30
0.0
  0
VERTEX
  5
81
330
7D
100
AcDbEntity
  8
Layer 1
370
     0
100
AcDbVertex
100
AcDb2dVertex
 10
111.640625
 20
-46.822265625
 30
0.0
  0
SEQEND
  5
82
330
7D
100
AcDbEntity
  8
Layer 1
370
     0
  0
HATCH
  5
83
330
67
100
AcDbEntity
  8
Layer 1
 62
     7
420
 16777215
100
AcDbHatch
 10
0.0
 20
0.0
 30
0.0
210
0.0
220
0.0
230
1.0
  2
SOLID
 70
     1
 71
     0
 91
        2
 92
        1
 93
        8
 72
     1
 10
118.859375
 20
-29.34912109375
 11
131.51171875
 21
-57.998046875
 72
     1
 10
131.51171875
 20
-57.998046875
 11
125.66796875
 21
-57.998046875
 72
     1
 10
125.66796875
 20
-57.998046875
 11
122.693359375
 21
-51.025390625
 72
     1
 10
122.693359375
 20
-51.025390625
 11
109.958984375
 21
-51.025390625
 72
     1
 10
109.958984375
 20
-51.025390625
 11
107.1904296875
 21
-57.998046875
 72
     1
 10
107.1904296875
 20
-57.998046875
 11
101.38671875
 21
-57.998046875
 72
     1
 10
101.38671875
 20
-57.998046875
 11
113.19921875
 21
-29.34912109375
 72
     1
 10
113.19921875
 20
-29.34912109375
 11
118.859375
 21
-29.34912109375
 97
        0
 92
        1
 93
        3
 72
     1
 10
111.640625
 20
-46.822265625
 11
120.888671875
 21
-46.822265625
 72
     1
 10
120.888671875
 20
-46.822265625
 11
116.048828125
 21
-35.48046875
 72
     1
 10
116.048828125
 20
-35.48046875
 11
111.640625
 21
-46.822265625
 97
        0
 75
     2
 76
     1
 98
        0
  0
SPLINE
  5
84
330
67
100
AcDbEntity
  8
Layer 1
370
     0
100
AcDbSpline
210
0.0
220
0.0
230
1.0
 70
    11
 71
     3
 72
    56
 73
    52
 74
     0
 42
0.0000000001
 43
0.0000000001
 40
0.0
 40
0.0
 40
0.0
 40
0.0
 40
1.0
 40
1.0
 40
1.0
 40
2.0
 40
2.0
 40
2.0
 40
3.0
 40
3.0
 40
3.0
 40
4.0
 40
4.0
 40
4.0
 40
5.0
 40
5.0
 40
5.0
 40
6.0
 40
6.0
 40
6.0
 40
7.0
 40
7.0
 40
7.0
 40
8.0
 40
8.0
 40
8.0
 40
9.0
 40
9.0
 40
9.0
 40
10.0
 40
10.0
 40
10.0
 40
11.0
 40
11.0
 40
11.0
 40
12.0
 40
12.0
 40
12.0
 40
13.0
 40
13.0
 40
13.0
 40
14.0
 40
14.0
 40
14.0
 40
15.0
 40
15.0
 40
15.0
 40
16.0
 40
16.0
 40
16.0
 40
17.0
 40
17.0
 40
17.0
 40
17.0
 10
144.392578125
 20
-29.34912109375
 30
0.0
 10
147.0859375
 20
-29.34912109375
 30
0.0
 10
149.28125
 20
-30.09423828125
 30
0.0
 10
150.9765625
 20
-31.58447265625
 30
0.0
 10
152.671875
 20
-33.07470703125
 30
0.0
 10
153.51953125
 20
-35.015625
 30
0.0
 10
153.51953125
 20
-37.408203125
 30
0.0
 10
153.51953125
 20
-39.03515625
 30
0.0
 10
153.099609375
 20
-40.4541015625
 30
0.0
 10
152.2578125
 20
-41.6640625
 30
0.0
 10
151.41796875
 20
-42.8740234375
 30
0.0
 10
150.169921875
 20
-43.828125
 30
0.0
 10
148.515625
 20
-44.525390625
 30
0.0
 10
149.431640625
 20
-45.017578125
 30
0.0
 10
150.244140625
 20
-45.6875
 30
0.0
 10
150.955078125
 20
-46.53515625
 30
0.0
 10
151.666015625
 20
-47.3828125
 30
0.0
 10
152.548828125
 20
-48.810546875
 30
0.0
 10
153.6015625
 20
-50.8203125
 30
0.0
 10
155.3515625
 20
-54.29296875
 30
0.0
 10
156.650390625
 20
-56.685546875
 30
0.0
 10
157.498046875
 20
-57.998046875
 30
0.0
 10
157.498046875
 20
-57.998046875
 30
0.0
 10
151.32421875
 20
-57.998046875
 30
0.0
 10
151.32421875
 20
-57.998046875
 30
0.0
 10
150.900390625
 20
-57.369140625
 30
0.0
 10
150.326171875
 20
-56.365234375
 30
0.0
 10
149.6015625
 20
-54.984375
 30
0.0
 10
148.015625
 20
-51.935546875
 30
0.0
 10
146.853515625
 20
-49.880859375
 30
0.0
 10
146.115234375
 20
-48.8212890625
 30
0.0
 10
145.376953125
 20
-47.76171875
 30
0.0
 10
144.666015625
 20
-47.009765625
 30
0.0
 10
143.982421875
 20
-46.5654296875
 30
0.0
 10
143.298828125
 20
-46.12109375
 30
0.0
 10
142.513671875
 20
-45.8984375
 30
0.0
 10
141.625
 20
-45.8984375
 30
0.0
 10
141.625
 20
-45.8984375
 30
0.0
 10
139.615234375
 20
-45.8984375
 30
0.0
 10
139.615234375
 20
-45.8984375
 30
0.0
 10
139.615234375
 20
-45.8984375
 30
0.0
 10
139.615234375
 20
-57.998046875
 30
0.0
 10
139.615234375
 20
-57.998046875
 30
0.0
 10
139.615234375
 20
-57.998046875
 30
0.0
 10
134.078125
 20
-57.998046875
 30
0.0
 10
134.078125
 20
-57.998046875
 30
0.0
 10
134.078125
 20
-57.998046875
 30
0.0
 10
134.078125
 20
-29.34912109375
 30
0.0
 10
134.078125
 20
-29.34912109375
 30
0.0
 10
134.078125
 20
-29.34912109375
 30
0.0
 10
144.392578125
 20
-29.34912109375
 30
0.0
 10
144.392578125
 20
-29.34912109375
 30
0.0
  0
SPLINE
  5
85
330
67
100
AcDbEntity
  8
Layer 1
370
     0
100
AcDbSpline
210
0.0
220
0.0
230
1.0
 70
    11
 71
     3
 72
    26
 73
    22
 74
     0
 42
0.0000000001
 43
0.0000000001
 40
0.0
 40
0.0
 40
0.0
 40
0.0
 40
1.0
 40
1.0
 40
1.0
 40
2.0
 40
2.0
 40
2.0
 40
3.0
 40
3.0
 40
3.0
 40
4.0
 40
4.0
 40
4.0
 40
5.0
 40
5.0
 40
5.0
 40
6.0
 40
6.0
 40
6.0
 40
7.0
 40
7.0
 40
7.0
 40
7.0
 10
143.142578125
 20
-41.572265625
 30
0.0
 10
144.591796875
 20
-41.572265625
 30
0.0
 10
145.728515625
 20
-41.208984375
 30
0.0
 10
146.556640625
 20
-40.484375
 30
0.0
 10
147.3828125
 20
-39.759765625
 30
0.0
 10
147.796875
 20
-38.76953125
 30
0.0
 10
147.796875
 20
-37.51171875
 30
0.0
 10
147.796875
 20
-36.19921875
 30
0.0
 10
147.38671875
 20
-35.2177734375
 30
0.0
 10
146.56640625
 20
-34.568359375
 30
0.0
 10
145.74609375
 20
-33.9189453125
 30
0.0
 10
144.578125
 20
-33.59423828125
 30
0.0
 10
143.060546875
 20
-33.59423828125
 30
0.0
 10
143.060546875
 20
-33.59423828125
 30
0.0
 10
139.615234375
 20
-33.59423828125
 30
0.0
 10
139.615234375
 20
-33.59423828125
 30
0.0
 10
139.615234375
 20
-33.59423828125
 30
0.0
 10
139.615234375
 20
-41.572265625
 30
0.0
 10
139.615234375
 20
-41.572265625
 30
0.0
 10
139.615234375
 20
-41.572265625
 30
0.0
 10
143.142578125
 20
-41.572265625
 30
0.0
 10
143.142578125
 20
-41.572265625
 30
0.0
  0
HATCH
  5
86
330
67
100
AcDbEntity
  8
Layer 1
 62
     7
420
 16777215
100
AcDbHatch
 10
0.0
 20
0.0
 30
0.0
210
0.0
220
0.0
230
1.0
  2
SOLID
 70
     1
 71
     0
 91
        2
 92
        1
 93
        1
 72
     4
 94
        3
 73
     0
 74
     1
 95
       56
 96
       52
 40
0.0
 40
0.0
 40
0.0
 40
0.0
 40
1.0
 40
1.0
 40
1.0
 40
2.0
 40
2.0
 40
2.0
 40
3.0
 40
3.0
 40
3.0
 40
4.0
 40
4.0
 40
4.0
 40
5.0
 40
5.0
 40
5.0
 40
6.0
 40
6.0
 40
6.0
 40
7.0
 40
7.0
 40
7.0
 40
8.0
 40
8.0
 40
8.0
 40
9.0
 40
9.0
 40
9.0
 40
10.0
 40
10.0
 40
10.0
 40
11.0
 40
11.0
 40
11.0
 40
12.0
 40
12.0
 40
12.0
 40
13.0
 40
13.0
 40
13.0
 40
14.0
 40
14.0
 40
14.0
 40
15.0
 40
15.0
 40
15.0
 40
16.0
 40
16.0
 40
16.0
 40
17.0
 40
17.0
 40
17.0
 40
17.0
 10
144.392578125
 20
-29.34912109375
 10
147.0859375
 20
-29.34912109375
 10
149.28125
 20
-30.09423828125
 10
150.9765625
 20
-31.58447265625
 10
152.671875
 20
-33.07470703125
 10
153.51953125
 20
-35.015625
 10
153.51953125
 20
-37.408203125
 10
153.51953125
 20
-39.03515625
 10
153.099609375
 20
-40.4541015625
 10
152.2578125
 20
-41.6640625
 10
151.41796875
 20
-42.8740234375
 10
150.169921875
 20
-43.828125
 10
148.515625
 20
-44.525390625
 10
149.431640625
 20
-45.017578125
 10
150.244140625
 20
-45.6875
 10
150.955078125
 20
-46.53515625
 10
151.666015625
 20
-47.3828125
 10
152.548828125
 20
-48.810546875
 10
153.6015625
 20
-50.8203125
 10
155.3515625
 20
-54.29296875
 10
156.650390625
 20
-56.685546875
 10
157.498046875
 20
-57.998046875
 10
157.498046875
 20
-57.998046875
 10
151.32421875
 20
-57.998046875
 10
151.32421875
 20
-57.998046875
 10
150.900390625
 20
-57.369140625
 10
150.326171875
 20
-56.365234375
 10
149.6015625
 20
-54.984375
 10
148.015625
 20
-51.935546875
 10
146.853515625
 20
-49.880859375
 10
146.115234375
 20
-48.8212890625
 10
145.376953125
 20
-47.76171875
 10
144.666015625
 20
-47.009765625
 10
143.982421875
 20
-46.5654296875
 10
143.298828125
 20
-46.12109375
 10
142.513671875
 20
-45.8984375
 10
141.625
 20
-45.8984375
 10
141.625
 20
-45.8984375
 10
139.615234375
 20
-45.8984375
 10
139.615234375
 20
-45.8984375
 10
139.615234375
 20
-45.8984375
 10
139.615234375
 20
-57.998046875
 10
139.615234375
 20
-57.998046875
 10
139.615234375
 20
-57.998046875
 10
134.078125
 20
-57.998046875
 10
134.078125
 20
-57.998046875
 10
134.078125
 20
-57.998046875
 10
134.078125
 20
-29.34912109375
 10
134.078125
 20
-29.34912109375
 10
134.078125
 20
-29.34912109375
 10
144.392578125
 20
-29.34912109375
 10
144.392578125
 20
-29.34912109375
 97
        0
 92
        1
 93
        1
 72
     4
 94
        3
 73
     0
 74
     1
 95
       26
 96
       22
 40
0.0
 40
0.0
 40
0.0
 40
0.0
 40
1.0
 40
1.0
 40
1.0
 40
2.0
 40
2.0
 40
2.0
 40
3.0
 40
3.0
 40
3.0
 40
4.0
 40
4.0
 40
4.0
 40
5.0
 40
5.0
 40
5.0
 40
6.0
 40
6.0
 40
6.0
 40
7.0
 40
7.0
 40
7.0
 40
7.0
 10
143.142578125
 20
-41.572265625
 10
144.591796875
 20
-41.572265625
 10
145.728515625
 20
-41.208984375
 10
146.556640625
 20
-40.484375
 10
147.3828125
 20
-39.759765625
 10
147.796875
 20
-38.76953125
 10
147.796875
 20
-37.51171875
 10
147.796875
 20
-36.19921875
 10
147.38671875
 20
-35.2177734375
 10
146.56640625
 20
-34.568359375
 10
145.74609375
 20
-33.9189453125
 10
144.578125
 20
-33.59423828125
 10
143.060546875
 20
-33.59423828125
 10
143.060546875
 20
-33.59423828125
 10
139.615234375
 20
-33.59423828125
 10
139.615234375
 20
-33.59423828125
 10
139.615234375
 20
-33.59423828125
 10
139.615234375
 20
-41.572265625
 10
139.615234375
 20
-41.572265625
 10
139.615234375
 20
-41.572265625
 10
143.142578125
 20
-41.572265625
 10
143.142578125
 20
-41.572265625
 97
        0
 75
     2
 76
     1
 98
        0
  0
POLYLINE
  5
87
330
67
100
AcDbEntity
  8
Layer 1
370
     0
100
AcDb2dPolyline
 66
     1
 10
0.0
 20
0.0
 30
0.0
  0
VERTEX
  5
88
330
87
100
AcDbEntity
  8
Layer 1
370
     0
100
AcDbVertex
100
AcDb2dVertex
 10
178.84765625
 20
-29.34912109375
 30
0.0
  0
VERTEX
  5
89
330
87
100
AcDbEntity
  8
Layer 1
370
     0
100
AcDbVertex
100
AcDb2dVertex
 10
178.84765625
 20
-33.67626953125
 30
0.0
  0
VERTEX
  5
8A
330
87
100
AcDbEntity
  8
Layer 1
370
     0
100
AcDbVertex
100
AcDb2dVertex
 10
165.8671875
 20
-33.67626953125
 30
0.0
  0
VERTEX
  5
8B
330
87
100
AcDbEntity
  8
Layer 1
370
     0
100
AcDbVertex
100
AcDb2dVertex
 10
165.8671875
 20
-41.203125
 30
0.0
  0
VERTEX
  5
8C
330
87
100
AcDbEntity
  8
Layer 1
370
     0
100
AcDbVertex
100
AcDb2dVertex
 10
178.294921875
 20
-41.203125
 30
0.0
  0
VERTEX
  5
8D
330
87
100
AcDbEntity
  8
Layer 1
370
     0
100
AcDbVertex
100
AcDb2dVertex
 10
178.294921875
 20
-45.529296875
 30
0.0
  0
VERTEX
  5
8E
330
87
100
AcDbEntity
  8
Layer 1
370
     0
100
AcDbVertex
100
AcDb2dVertex
 10
165.8671875
 20
-45.529296875
 30
0.0
  0
VERTEX
  5
8F
330
87
100
AcDbEntity
  8
Layer 1
370
     0
100
AcDbVertex
100
AcDb2dVertex
 10
165.8671875
 20
-53.671875
 30
0.0
  0
VERTEX
  5
90
330
87
100
AcDbEntity
  8
Layer 1
370
     0
100
AcDbVertex
100
AcDb2dVertex
 10
179.134765625
 20
-53.671875
 30
0.0
  0
VERTEX
  5
91
330
87
100
AcDbEntity
  8
Layer 1
370
     0
100
AcDbVertex
100
AcDb2dVertex
 10
179.134765625
 20
-57.998046875
 30
0.0
  0
VERTEX
  5
92
330
87
100
AcDbEntity
  8
Layer 1
370
     0
100
AcDbVertex
100
AcDb2dVertex
 10
160.330078125
 20
-57.998046875
 30
0.0
  0
VERTEX
  5
93
330
87
100
AcDbEntity
  8
Layer 1
370
     0
100
AcDbVertex
100
AcDb2dVertex
 10
160.330078125
 20
-29.34912109375
 30
0.0
  0
VERTEX
  5
94
330
87
100
AcDbEntity
  8
Layer 1
370
     0
100
AcDbVertex
100
AcDb2dVertex
 10
178.84765625
 20
-29.34912109375
 30
0.0
  0
SEQEND
  5
95
330
87
100
AcDbEntity
  8
Layer 1
370
     0
  0
HATCH
  5
96
330
67
100
AcDbEntity
  8
Layer 1
 62
     7
420
 16777215
100
AcDbHatch
 10
0.0
 20
0.0
 30
0.0
210
0.0
220
0.0
230
1.0
  2
SOLID
 70
     1
 71
     0
 91
        1
 92
        1
 93
       12
 72
     1
 10
178.84765625
 20
-29.34912109375
 11
178.84765625
 21
-33.67626953125
 72
     1
 10
178.84765625
 20
-33.67626953125
 11
165.8671875
 21
-33.67626953125
 72
     1
 10
165.8671875
 20
-33.67626953125
 11
165.8671875
 21
-41.203125
 72
     1
 10
165.8671875
 20
-41.203125
 11
178.294921875
 21
-41.203125
 72
     1
 10
178.294921875
 20
-41.203125
 11
178.294921875
 21
-45.529296875
 72
     1
 10
178.294921875
 20
-45.529296875
 11
165.8671875
 21
-45.529296875
 72
     1
 10
165.8671875
 20
-45.529296875
 11
165.8671875
 21
-53.671875
 72
     1
 10
165.8671875
 20
-53.671875
 11
179.134765625
 21
-53.671875
 72
     1
 10
179.134765625
 20
-53.671875
 11
179.134765625
 21
-57.998046875
 72
     1
 10
179.134765625
 20
-57.998046875
 11
160.330078125
 21
-57.998046875
 72
     1
 10
160.330078125
 20
-57.998046875
 11
160.330078125
 21
-29.34912109375
 72
     1
 10
160.330078125
 20
-29.34912109375
 11
178.84765625
 21
-29.34912109375
 97
        0
 75
     2
 76
     1
 98
        0
  0
SPLINE
  5
97
330
67
100
AcDbEntity
  8
Layer 1
370
     0
100
AcDbSpline
210
0.0
220
0.0
230
1.0
 70
    11
 71
     3
 72
    32
 73
    28
 74
     0
 42
0.0000000001
 43
0.0000000001
 40
0.0
 40
0.0
 40
0.0
 40
0.0
 40
1.0
 40
1.0
 40
1.0
 40
2.0
 40
2.0
 40
2.0
 40
3.0
 40
3.0
 40
3.0
 40
4.0
 40
4.0
 40
4.0
 40
5.0
 40
5.0
 40
5.0
 40
6.0
 40
6.0
 40
6.0
 40
7.0
 40
7.0
 40
7.0
 40
8.0
 40
8.0
 40
8.0
 40
9.0
 40
9.0
 40
9.0
 40
9.0
 10
195.501953125
 20
-29.34912109375
 30
0.0
 10
198.482421875
 20
-29.34912109375
 30
0.0
 10
201.134765625
 20
-29.95751953125
 30
0.0
 10
203.458984375
 20
-31.17431640625
 30
0.0
 10
205.783203125
 20
-32.39111328125
 30
0.0
 10
207.587890625
 20
-34.099609375
 30
0.0
 10
208.873046875
 20
-36.30078125
 30
0.0
 10
210.158203125
 20
-38.501953125
 30
0.0
 10
210.80078125
 20
-40.9765625
 30
0.0
 10
210.80078125
 20
-43.724609375
 30
0.0
 10
210.80078125
 20
-46.52734375
 30
0.0
 10
210.15625
 20
-49.0126953125
 30
0.0
 10
208.86328125
 20
-51.1796875
 30
0.0
 10
207.572265625
 20
-53.3466796875
 30
0.0
 10
205.736328125
 20
-55.025390625
 30
0.0
 10
203.357421875
 20
-56.21484375
 30
0.0
 10
200.978515625
 20
-57.404296875
 30
0.0
 10
198.25
 20
-57.998046875
 30
0.0
 10
195.173828125
 20
-57.998046875
 30
0.0
 10
195.173828125
 20
-57.998046875
 30
0.0
 10
183.505859375
 20
-57.998046875
 30
0.0
 10
183.505859375
 20
-57.998046875
 30
0.0
 10
183.505859375
 20
-57.998046875
 30
0.0
 10
183.505859375
 20
-29.34912109375
 30
0.0
 10
183.505859375
 20
-29.34912109375
 30
0.0
 10
183.505859375
 20
-29.34912109375
 30
0.0
 10
195.501953125
 20
-29.34912109375
 30
0.0
 10
195.501953125
 20
-29.34912109375
 30
0.0
  0
SPLINE
  5
98
330
67
100
AcDbEntity
  8
Layer 1
370
     0
100
AcDbSpline
210
0.0
220
0.0
230
1.0
 70
    11
 71
     3
 72
    26
 73
    22
 74
     0
 42
0.0000000001
 43
0.0000000001
 40
0.0
 40
0.0
 40
0.0
 40
0.0
 40
1.0
 40
1.0
 40
1.0
 40
2.0
 40
2.0
 40
2.0
 40
3.0
 40
3.0
 40
3.0
 40
4.0
 40
4.0
 40
4.0
 40
5.0
 40
5.0
 40
5.0
 40
6.0
 40
6.0
 40
6.0
 40
7.0
 40
7.0
 40
7.0
 40
7.0
 10
194.927734375
 20
-53.671875
 30
0.0
 10
197.990234375
 20
-53.671875
 30
0.0
 10
200.447265625
 20
-52.751953125
 30
0.0
 10
202.30078125
 20
-50.9130859375
 30
0.0
 10
204.15234375
 20
-49.07421875
 30
0.0
 10
205.080078125
 20
-46.6640625
 30
0.0
 10
205.080078125
 20
-43.68359375
 30
0.0
 10
205.080078125
 20
-40.59375
 30
0.0
 10
204.146484375
 20
-38.154296875
 30
0.0
 10
202.28125
 20
-36.36328125
 30
0.0
 10
200.4140625
 20
-34.572265625
 30
0.0
 10
197.90234375
 20
-33.67626953125
 30
0.0
 10
194.744140625
 20
-33.67626953125
 30
0.0
 10
194.744140625
 20
-33.67626953125
 30
0.0
 10
189.04296875
 20
-33.67626953125
 30
0.0
 10
189.04296875
 20
-33.67626953125
 30
0.0
 10
189.04296875
 20
-33.67626953125
 30
0.0
 10
189.04296875
 20
-53.671875
 30
0.0
 10
189.04296875
 20
-53.671875
 30
0.0
 10
189.04296875
 20
-53.671875
 30
0.0
 10
194.927734375
 20
-53.671875
 30
0.0
 10
194.927734375
 20
-53.671875
 30
0.0
  0
HATCH
  5
99
330
67
100
AcDbEntity
  8
Layer 1
 62
     7
420
 16777215
100
AcDbHatch
 10
0.0
 20
0.0
 30
0.0
210
0.0
220
0.0
230
1.0
  2
SOLID
 70
     1
 71
     0
 91
        2
 92
        1
 93
        1
 72
     4
 94
        3
 73
     0
 74
     1
 95
       32
 96
       28
 40
0.0
 40
0.0
 40
0.0
 40
0.0
 40
1.0
 40
1.0
 40
1.0
 40
2.0
 40
2.0
 40
2.0
 40
3.0
 40
3.0
 40
3.0
 40
4.0
 40
4.0
 40
4.0
 40
5.0
 40
5.0
 40
5.0
 40
6.0
 40
6.0
 40
6.0
 40
7.0
 40
7.0
 40
7.0
 40
8.0
 40
8.0
 40
8.0
 40
9.0
 40
9.0
 40
9.0
 40
9.0
 10
195.501953125
 20
-29.34912109375
 10
198.482421875
 20
-29.34912109375
 10
201.134765625
 20
-29.95751953125
 10
203.458984375
 20
-31.17431640625
 10
205.783203125
 20
-32.39111328125
 10
207.587890625
 20
-34.099609375
 10
208.873046875
 20
-36.30078125
 10
210.158203125
 20
-38.501953125
 10
210.80078125
 20
-40.9765625
 10
210.80078125
 20
-43.724609375
 10
210.80078125
 20
-46.52734375
 10
210.15625
 20
-49.0126953125
 10
208.86328125
 20
-51.1796875
 10
207.572265625
 20
-53.3466796875
 10
205.736328125
 20
-55.025390625
 10
203.357421875
 20
-56.21484375
 10
200.978515625
 20
-57.404296875
 10
198.25
 20
-57.998046875
 10
195.173828125
 20
-57.998046875
 10
195.173828125
 20
-57.998046875
 10
183.505859375
 20
-57.998046875
 10
183.505859375
 20
-57.998046875
 10
183.505859375
 20
-57.998046875
 10
183.505859375
 20
-29.34912109375
 10
183.505859375
 20
-29.34912109375
 10
183.505859375
 20
-29.34912109375
 10
195.501953125
 20
-29.34912109375
 10
195.501953125
 20
-29.34912109375
 97
        0
 92
        1
 93
        1
 72
     4
 94
        3
 73
     0
 74
     1
 95
       26
 96
       22
 40
0.0
 40
0.0
 40
0.0
 40
0.0
 40
1.0
 40
1.0
 40
1.0
 40
2.0
 40
2.0
 40
2.0
 40
3.0
 40
3.0
 40
3.0
 40
4.0
 40
4.0
 40
4.0
 40
5.0
 40
5.0
 40
5.0
 40
6.0
 40
6.0
 40
6.0
 40
7.0
 40
7.0
 40
7.0
 40
7.0
 10
194.927734375
 20
-53.671875
 10
197.990234375
 20
-53.671875
 10
200.447265625
 20
-52.751953125
 10
202.30078125
 20
-50.9130859375
 10
204.15234375
 20
-49.07421875
 10
205.080078125
 20
-46.6640625
 10
205.080078125
 20
-43.68359375
 10
205.080078125
 20
-40.59375
 10
204.146484375
 20
-38.154296875
 10
202.28125
 20
-36.36328125
 10
200.4140625
 20
-34.572265625
 10
197.90234375
 20
-33.67626953125
 10
194.744140625
 20
-33.67626953125
 10
194.744140625
 20
-33.67626953125
 10
189.04296875
 20
-33.67626953125
 10
189.04296875
 20
-33.67626953125
 10
189.04296875
 20
-33.67626953125
 10
189.04296875
 20
-53.671875
 10
189.04296875
 20
-53.671875
 10
189.04296875
 20
-53.671875
 10
194.927734375
 20
-53.671875
 10
194.927734375
 20
-53.671875
 97
        0
 75
     2
 76
     1
 98
        0
  0
ENDBLK
  5
6A
330
67
100
AcDbEntity
  8
0
100
AcDbBlockEnd
  0
ENDSEC
  0
SECTION
  2
ENTITIES
  0
INSERT
  5
3D
330
1F
100
AcDbEntity
  8
Layer 1
100
AcDbBlockReference
  2
block 2
 10
0.0
 20
0.0
 30
0.0
  0
INSERT
  5
68
330
1F
100
AcDbEntity
  8
Layer 1
100
AcDbBlockReference
  2
block 3
 10
0.0
 20
0.0
 30
0.0
  0
ENDSEC
  0
SECTION
  2
OBJECTS
  0
DICTIONARY
  5
C
330
0
100
AcDbDictionary
281
     1
  3
ACAD_GROUP
350
D
  3
ACAD_LAYOUT
350
1A
  3
ACAD_MLINESTYLE
350
17
  3
ACAD_PLOTSETTINGS
350
19
  3
ACAD_PLOTSTYLENAME
350
E
  3
ACAD_TABLESTYLE
350
9A
  3
ACAD_VISUALSTYLE
350
2A
  0
DICTIONARY
  5
D
102
{ACAD_REACTORS
330
C
102
}
330
C
100
AcDbDictionary
281
     1
  0
DICTIONARY
  5
1A
102
{ACAD_REACTORS
330
C
102
}
330
C
100
AcDbDictionary
281
     1
  3
Layout1
350
1E
  3
Layout2
350
26
  3
Model
350
22
  0
DICTIONARY
  5
17
102
{ACAD_REACTORS
330
C
102
}
330
C
100
AcDbDictionary
281
     1
  3
Standard
350
18
  0
DICTIONARY
  5
19
102
{ACAD_REACTORS
330
C
102
}
330
C
100
AcDbDictionary
281
     1
  0
ACDBDICTIONARYWDFLT
  5
E
102
{ACAD_REACTORS
330
C
102
}
330
C
100
AcDbDictionary
281
     1
  3
Normal
350
F
100
AcDbDictionaryWithDefault
340
F
  0
DICTIONARY
  5
9A
102
{ACAD_REACTORS
330
C
102
}
330
C
100
AcDbDictionary
281
     1
  0
DICTIONARY
  5
2A
102
{ACAD_REACTORS
330
C
102
}
330
C
100
AcDbDictionary
281
     1
  3
2dWireframe
350
2F
  3
3D Hidden
350
31
  3
3dWireframe
350
30
  3
Basic
350
32
  3
Brighten
350
36
  3
ColorChange
350
3A
  3
Conceptual
350
34
  3
Dim
350
35
  3
Facepattern
350
39
  3
Flat
350
2B
  3
FlatWithEdges
350
2C
  3
Gouraud
350
2D
  3
GouraudWithEdges
350
2E
  3
Linepattern
350
38
  3
Realistic
350
33
  3
Thicken
350
37
  0
LAYOUT
  5
1E
102
{ACAD_REACTORS
330
1A
102
}
330
1A
100
AcDbPlotSettings
  1

  2
none_device
  4

  6

 40
0.0
 41
0.0
 42
0.0
 43
0.0
 44
0.0
 45
0.0
 46
0.0
 47
0.0
 48
0.0
 49
0.0
140
0.0
141
0.0
142
1.0
143
1.0
 70
   688
 72
     0
 73
     0
 74
     5
  7

 75
    16
 76
     0
 77
     2
 78
   300
147
1.0
148
0.0
149
0.0
100
AcDbLayout
  1
Layout1
 70
     1
 71
     1
 10
0.0
 20
0.0
 11
12.0
 21
9.0
 12
0.0
 22
0.0
 32
0.0
 14
1.000000000000000E+20
 24
1.000000000000000E+20
 34
1.000000000000000E+20
 15
-1.000000000000000E+20
 25
-1.000000000000000E+20
 35
-1.000000000000000E+20
146
0.0
 13
0.0
 23
0.0
 33
0.0
 16
1.0
 26
0.0
 36
0.0
 17
0.0
 27
1.0
 37
0.0
 76
     0
330
1B
  0
LAYOUT
  5
26
102
{ACAD_REACTORS
330
1A
102
}
330
1A
100
AcDbPlotSettings
  1

  2
none_device
  4

  6

 40
0.0
 41
0.0
 42
0.0
 43
0.0
 44
0.0
 45
0.0
 46
0.0
 47
0.0
 48
0.0
 49
0.0
140
0.0
141
0.0
142
1.0
143
1.0
 70
   688
 72
     0
 73
     0
 74
     5
  7

 75
    16
 76
     0
 77
     2
 78
   300
147
1.0
148
0.0
149
0.0
100
AcDbLayout
  1
Layout2
 70
     1
 71
     2
 10
0.0
 20
0.0
 11
0.0
 21
0.0
 12
0.0
 22
0.0
 32
0.0
 14
0.0
 24
0.0
 34
0.0
 15
0.0
 25
0.0
 35
0.0
146
0.0
 13
0.0
 23
0.0
 33
0.0
 16
1.0
 26
0.0
 36
0.0
 17
0.0
 27
1.0
 37
0.0
 76
     0
330
23
  0
LAYOUT
  5
22
102
{ACAD_REACTORS
330
1A
102
}
330
1A
100
AcDbPlotSettings
  1

  2
none_device
  4

  6

 40
0.0
 41
0.0
 42
0.0
 43
0.0
 44
0.0
 45
0.0
 46
0.0
 47
0.0
 48
0.0
 49
0.0
140
0.0
141
0.0
142
1.0
143
1.0
 70
  1712
 72
     0
 73
     0
 74
     0
  7

 75
     0
 76
     0
 77
     2
 78
   300
147
1.0
148
0.0
149
0.0
100
AcDbLayout
  1
Model
 70
     1
 71
     0
 10
0.0
 20
0.0
 11
12.0
 21
9.0
 12
0.0
 22
0.0
 32
0.0
 14
1.000000000000000E+20
 24
1.000000000000000E+20
 34
1.000000000000000E+20
 15
-1.000000000000000E+20
 25
-1.000000000000000E+20
 35
-1.000000000000000E+20
146
0.0
 13
0.0
 23
0.0
 33
0.0
 16
1.0
 26
0.0
 36
0.0
 17
0.0
 27
1.0
 37
0.0
 76
     0
330
1F
331
29
  0
MLINESTYLE
  5
18
102
{ACAD_REACTORS
330
17
102
}
330
17
100
AcDbMlineStyle
  2
Standard
 70
     0
  3

 62
   256
 51
90.0
 52
90.0
 71
     2
 49
0.5
 62
   256
  6
BYLAYER
 49
-0.5
 62
   256
  6
BYLAYER
  0
ACDBPLACEHOLDER
  5
F
102
{ACAD_REACTORS
330
E
102
}
330
E
  0
VISUALSTYLE
  5
2F
102
{ACAD_REACTORS
330
2A
102
}
330
2A
100
AcDbVisualStyle
  2
2dWireframe
 70
     4
 71
     0
 72
     2
 73
     0
 90
        0
 40
-0.6
 41
-30.0
 62
     5
 63
     7
421
 16777215
 74
     1
 91
        4
 64
     7
 65
   257
 75
     1
175
     1
 42
1.0
 92
        0
 66
   257
 43
1.0
 76
     1
 77
     6
 78
     2
 67
     7
 79
     5
170
     0
171
     0
290
     0
174
     0
 93
        1
 44
0.0
173
     0
291
     0
 45
0.0
1001
ACAD
1000
AcDbSavedByObjectVersion
1070
     0
  0
VISUALSTYLE
  5
31
102
{ACAD_REACTORS
330
2A
102
}
330
2A
100
AcDbVisualStyle
  2
3D Hidden
 70
     6
 71
     1
 72
     2
 73
     2
 90
        0
 40
-0.6
 41
-30.0
 62
     5
 63
     7
421
 16777215
 74
     2
 91
        2
 64
     7
 65
   257
 75
     2
175
     1
 42
40.0
 92
        0
 66
   257
 43
1.0
 76
     1
 77
     6
 78
     2
 67
     7
 79
     3
170
     0
171
     0
290
     0
174
     0
 93
        1
 44
0.0
173
     0
291
     0
 45
0.0
1001
ACAD
1000
AcDbSavedByObjectVersion
1070
     0
  0
VISUALSTYLE
  5
30
102
{ACAD_REACTORS
330
2A
102
}
330
2A
100
AcDbVisualStyle
  2
3dWireframe
 70
     5
 71
     0
 72
     2
 73
     0
 90
        0
 40
-0.6
 41
-30.0
 62
     5
 63
     7
421
 16777215
 74
     1
 91
        4
 64
     7
 65
   257
 75
     1
175
     1
 42
1.0
 92
        0
 66
   257
 43
1.0
 76
     1
 77
     6
 78
     2
 67
     7
 79
     5
170
     0
171
     0
290
     0
174
     0
 93
        1
 44
0.0
173
     0
291
     0
 45
0.0
1001
ACAD
1000
AcDbSavedByObjectVersion
1070
     0
  0
VISUALSTYLE
  5
32
102
{ACAD_REACTORS
330
2A
102
}
330
2A
100
AcDbVisualStyle
  2
Basic
 70
     7
 71
     1
 72
     0
 73
     1
 90
        0
 40
-0.6
 41
-30.0
 62
     5
 63
     7
421
 16777215
 74
     0
 91
        4
 64
     7
 65
   257
 75
     1
175
     1
 42
1.0
 92
        8
 66
     7
 43
1.0
 76
     1
 77
     6
 78
     2
 67
     7
 79
     5
170
     0
171
     0
290
     0
174
     0
 93
        1
 44
0.0
173
     0
291
     1
 45
0.0
1001
ACAD
1000
AcDbSavedByObjectVersion
1070
     0
  0
VISUALSTYLE
  5
36
102
{ACAD_REACTORS
330
2A
102
}
330
2A
100
AcDbVisualStyle
  2
Brighten
 70
    12
 71
     2
 72
     2
 73
     0
 90
        0
 40
-0.6
 41
-30.0
 62
     5
 63
     7
421
 16777215
 74
     1
 91
        4
 64
     7
 65
   257
 75
     1
175
     1
 42
1.0
 92
        8
 66
     7
 43
1.0
 76
     1
 77
     6
 78
     2
 67
     7
 79
     5
170
     0
171
     0
290
     0
174
     0
 93
        1
 44
50.0
173
     0
291
     1
 45
0.0
1001
ACAD
1000
AcDbSavedByObjectVersion
1070
     0
  0
VISUALSTYLE
  5
3A
102
{ACAD_REACTORS
330
2A
102
}
330
2A
100
AcDbVisualStyle
  2
ColorChange
 70
    16
 71
     2
 72
     2
 73
     3
 90
        0
 40
-0.6
 41
-30.0
 62
     5
 63
     8
421
  8421504
 74
     1
 91
        4
 64
     7
 65
   257
 75
     1
175
     1
 42
1.0
 92
        8
 66
     8
424
  8421504
 43
1.0
 76
     1
 77
     6
 78
     2
 67
     7
 79
     5
170
     0
171
     0
290
     0
174
     0
 93
        1
 44
0.0
173
     0
291
     1
 45
0.0
1001
ACAD
1000
AcDbSavedByObjectVersion
1070
     0
  0
VISUALSTYLE
  5
34
102
{ACAD_REACTORS
330
2A
102
}
330
2A
100
AcDbVisualStyle
  2
Conceptual
 70
     9
 71
     3
 72
     2
 73
     0
 90
        0
 40
-0.6
 41
-30.0
 62
     5
 63
     7
421
 16777215
 74
     2
 91
        2
 64
     7
 65
   257
 75
     1
175
     1
 42
40.0
 92
        8
 66
     7
 43
1.0
 76
     1
 77
     6
 78
     2
 67
     7
 79
     3
170
     0
171
     0
290
     0
174
     0
 93
        1
 44
0.0
173
     0
291
     0
 45
0.0
1001
ACAD
1000
AcDbSavedByObjectVersion
1070
     0
  0
VISUALSTYLE
  5
35
102
{ACAD_REACTORS
330
2A
102
}
330
2A
100
AcDbVisualStyle
  2
Dim
 70
    11
 71
     2
 72
     2
 73
     0
 90
        0
 40
-0.6
 41
-30.0
 62
     5
 63
     7
421
 16777215
 74
     1
 91
        4
 64
     7
 65
   257
 75
     1
175
     1
 42
1.0
 92
        8
 66
     7
 43
1.0
 76
     1
 77
     6
 78
     2
 67
     7
 79
     5
170
     0
171
     0
290
     0
174
     0
 93
        1
 44
-50.0
173
     0
291
     1
 45
0.0
1001
ACAD
1000
AcDbSavedByObjectVersion
1070
     0
  0
VISUALSTYLE
  5
39
102
{ACAD_REACTORS
330
2A
102
}
330
2A
100
AcDbVisualStyle
  2
Facepattern
 70
    15
 71
     2
 72
     2
 73
     0
 90
        0
 40
-0.6
 41
-30.0
 62
     5
 63
     7
421
 16777215
 74
     1
 91
        4
 64
     7
 65
   257
 75
     1
175
     1
 42
1.0
 92
        8
 66
     7
 43
1.0
 76
     1
 77
     6
 78
     2
 67
     7
 79
     5
170
     0
171
     0
290
     0
174
     0
 93
        1
 44
0.0
173
     0
291
     1
 45
0.0
1001
ACAD
1000
AcDbSavedByObjectVersion
1070
     0
  0
VISUALSTYLE
  5
2B
102
{ACAD_REACTORS
330
2A
102
}
330
2A
100
AcDbVisualStyle
  2
Flat
 70
     0
 71
     2
 72
     1
 73
     1
 90
        2
 40
-0.6
 41
30.0
 62
     5
 63
     7
421
 16777215
 74
     0
 91
        4
 64
     7
 65
   257
 75
     1
175
     1
 42
1.0
 92
        8
 66
     7
 43
1.0
 76
     1
 77
     6
 78
     2
 67
     7
 79
     5
170
     0
171
     0
290
     0
174
     0
 93
       13
 44
0.0
173
     0
291
     1
 45
0.0
1001
ACAD
1000
AcDbSavedByObjectVersion
1070
     0
  0
VISUALSTYLE
  5
2C
102
{ACAD_REACTORS
330
2A
102
}
330
2A
100
AcDbVisualStyle
  2
FlatWithEdges
 70
     1
 71
     2
 72
     1
 73
     1
 90
        2
 40
-0.6
 41
30.0
 62
     5
 63
     7
421
 16777215
 74
     1
 91
        4
 64
     7
 65
   257
 75
     1
175
     1
 42
1.0
 92
        0
 66
   257
 43
1.0
 76
     1
 77
     6
 78
     2
 67
     7
 79
     5
170
     0
171
     0
290
     0
174
     0
 93
       13
 44
0.0
173
     0
291
     1
 45
0.0
1001
ACAD
1000
AcDbSavedByObjectVersion
1070
     0
  0
VISUALSTYLE
  5
2D
102
{ACAD_REACTORS
330
2A
102
}
330
2A
100
AcDbVisualStyle
  2
Gouraud
 70
     2
 71
     2
 72
     2
 73
     1
 90
        2
 40
-0.6
 41
30.0
 62
     5
 63
     7
421
 16777215
 74
     0
 91
        4
 64
     7
 65
   257
 75
     1
175
     1
 42
1.0
 92
        0
 66
     7
 43
1.0
 76
     1
 77
     6
 78
     2
 67
     7
 79
     5
170
     0
171
     0
290
     0
174
     0
 93
       13
 44
0.0
173
     0
291
     1
 45
0.0
1001
ACAD
1000
AcDbSavedByObjectVersion
1070
     0
  0
VISUALSTYLE
  5
2E
102
{ACAD_REACTORS
330
2A
102
}
330
2A
100
AcDbVisualStyle
  2
GouraudWithEdges
 70
     3
 71
     2
 72
     2
 73
     1
 90
        2
 40
-0.6
 41
30.0
 62
     5
 63
     7
421
 16777215
 74
     1
 91
        4
 64
     7
 65
   257
 75
     1
175
     1
 42
1.0
 92
        0
 66
   257
 43
1.0
 76
     1
 77
     6
 78
     2
 67
     7
 79
     5
170
     0
171
     0
290
     0
174
     0
 93
       13
 44
0.0
173
     0
291
     1
 45
0.0
1001
ACAD
1000
AcDbSavedByObjectVersion
1070
     0
  0
VISUALSTYLE
  5
38
102
{ACAD_REACTORS
330
2A
102
}
330
2A
100
AcDbVisualStyle
  2
Linepattern
 70
    14
 71
     2
 72
     2
 73
     0
 90
        0
 40
-0.6
 41
-30.0
 62
     5
 63
     7
421
 16777215
 74
     1
 91
        4
 64
     7
 65
   257
 75
     7
175
     7
 42
1.0
 92
        8
 66
     7
 43
1.0
 76
     1
 77
     6
 78
     2
 67
     7
 79
     5
170
     0
171
     0
290
     0
174
     0
 93
        1
 44
0.0
173
     0
291
     1
 45
0.0
1001
ACAD
1000
AcDbSavedByObjectVersion
1070
     0
  0
VISUALSTYLE
  5
33
102
{ACAD_REACTORS
330
2A
102
}
330
2A
100
AcDbVisualStyle
  2
Realistic
 70
     8
 71
     2
 72
     2
 73
     0
 90
        0
 40
-0.6
 41
-30.0
 62
     5
 63
     7
421
 16777215
 74
     1
 91
        0
 64
     7
 65
   257
 75
     1
175
     1
 42
1.0
 92
        8
 66
     8
424
  7895160
 43
1.0
 76
     1
 77
     6
 78
     2
 67
     7
 79
     5
170
     0
171
     0
290
     0
174
     0
 93
       13
 44
0.0
173
     0
291
     0
 45
0.0
1001
ACAD
1000
AcDbSavedByObjectVersion
1070
     0
  0
VISUALSTYLE
  5
37
102
{ACAD_REACTORS
330
2A
102
}
330
2A
100
AcDbVisualStyle
  2
Thicken
 70
    13
 71
     2
 72
     2
 73
     0
 90
        0
 40
-0.6
 41
-30.0
 62
     5
 63
     7
421
 16777215
 74
     1
 91
        4
 64
     7
 65
   257
 75
     1
175
     1
 42
1.0
 92
       12
 66
     7
 43
1.0
 76
     1
 77
     6
 78
     2
 67
     7
 79
     5
170
     0
171
     0
290
     0
174
     0
 93
        1
 44
0.0
173
     0
291
     1
 45
0.0
1001
ACAD
1000
AcDbSavedByObjectVersion
1070
     0
  0
ENDSEC
  0
EOF
